<?xml version="1.0" encoding="utf-8"?>
<!-- Generator: Adobe Illustrator 19.0.0, SVG Export Plug-In . SVG Version: 6.00 Build 0)  -->
<svg version="1.1" id="Layer_2" xmlns="http://www.w3.org/2000/svg" xmlns:xlink="http://www.w3.org/1999/xlink" x="0px" y="0px"
	 viewBox="-281 379 32.4 84.9" style="enable-background:new -281 379 32.4 84.9;" xml:space="preserve">
<style type="text/css">
	.st0{fill:none;}
	.st1{fill:none;stroke:#FCDE4E;stroke-width:3;stroke-miterlimit:10;}
</style>
<title>2 filled</title>
<path class="st0" d="M-252.1,440.3v-4.8h3v19.6c0,4.6-3.7,8.2-8.3,8.3h-14.9c-4.6,0-8.2-3.7-8.3-8.3v-19.6h3.1v4.8
	c0,2.1,1.7,3.8,3.8,3.8h17.7C-253.8,444.1-252.1,442.4-252.1,440.3z"/>
<path class="st1" d="M-249.1,435.5v19.6c0,4.6-3.7,8.2-8.3,8.3h-14.9c-4.6,0-8.2-3.7-8.3-8.3v-30.3c0-4.6,3.7-8.2,8.3-8.2h14.9
	c4.6,0,8.2,3.7,8.3,8.2V435.5z"/>
<path class="st1" d="M-267,382.6c0-0.2,0-0.4,0-0.6c0.1-1.3,1.1-2.3,2.3-2.4c1.4,0.2,2.4,1.4,2.4,2.7c0,0.1,0,0.2,0,0.3"/>
<path class="st1" d="M-260.2,400.7h3.3c2.6,0,4.6,2.1,4.6,4.6v4.1c0,2.6-2.1,4.6-4.6,4.6h-15.8c-2.6,0-4.6-2.1-4.6-4.6v-4.1
	c0-2.6,2.1-4.6,4.6-4.6L-260.2,400.7L-260.2,400.7z"/>
<polyline class="st1" points="-267,381.7 -267.1,381.9 -269.3,400.7 "/>
<polyline class="st1" points="-262.3,381.7 -262.2,382.2 -260.2,400.7 "/>
<path class="st1" d="M-253.5,435.4v4.2c0,1.8-1.5,3.3-3.3,3.3h-15.6c-1.8,0-3.3-1.5-3.3-3.3v-10c0-1.8,1.5-3.3,3.3-3.3h15.6
	c1.8,0,3.3,1.5,3.3,3.3V435.4z"/>
</svg>
