<svg xmlns="http://www.w3.org/2000/svg" viewBox="0 0 162.84 162.84"><defs><style>.cls-1{fill:none;stroke:#fff;stroke-miterlimit:10;stroke-width:5px;}</style></defs><title>Asset 3</title><g id="Layer_2" data-name="Layer 2"><g id="Layer_1-2" data-name="Layer 1"><path class="cls-1" d="M160.34,81.42A78.92,78.92,0,1,1,81.42,2.5,78.92,78.92,0,0,1,160.34,81.42Z"/><polyline class="cls-1" points="95.98 43.62 83.08 59.35 81.7 61.05 81.4 61.39"/><line class="cls-1" x1="95.98" y1="43.62" x2="103.76" y2="34.12"/><path class="cls-1" d="M114.41,97.42l.47.39,4.11,3.49a2.63,2.63,0,0,1,.34,3.68v0l-2.38,2.8a2.63,2.63,0,0,1-3.68.34h0L75.59,76.28l-4.54,5.37-.19.29"/><path class="cls-1" d="M111.14,94.66l.64.53"/><path class="cls-1" d="M96.45,82.2l8,6.84"/><path class="cls-1" d="M95.51,81.42l.86.73"/><path class="cls-1" d="M94.23,80.33l.85.72"/><path class="cls-1" d="M90.23,76.92l.77.65"/><path class="cls-1" d="M87.46,74.58l1.29,1.1"/><path class="cls-1" d="M86.73,74l.56.47"/><path class="cls-1" d="M64.64,76.91l.34-.4,4.54-5.38-3.53-3a2.66,2.66,0,0,1-.29-3.74l2.38-2.81a2.66,2.66,0,0,1,3.74-.31l3.51,3,2.59-3.08a2.1,2.1,0,0,1,3-.26h0l.53.44,2.34,2a2.1,2.1,0,0,1,.26,3h0l-2.59,3.07,5.26,4.45"/><path class="cls-1" d="M96.45,82.2l-.09-.07-.86-.7-.43-.36-.85-.73L91,77.58l-.77-.65L88.75,75.7l-1.29-1.12-.18-.15L86.72,74l-.09-.08a3.05,3.05,0,0,1-.35-4.29L91.9,63l3.81-4.49L101.18,52a3,3,0,0,1,4.29-.35L115.29,60a3.06,3.06,0,0,1,.35,4.29l-5.55,6.53-3.81,4.5-5.54,6.52A3,3,0,0,1,96.45,82.2Z"/><path class="cls-1" d="M110.55,44.33c3.41-4,5.26-2.86,7.5-.94L122,46.72c2.26,1.92,3.89,3.41.48,7.43"/><path class="cls-1" d="M128,59.06c2.94-3.47,5.55-3,7.94-.92l4.17,3.54c2.39,2,3.39,4.57.45,8"/><path class="cls-1" d="M114.87,97.82l-.47-.39-2.63-2.23-.64-.53L104.53,89h0a3.06,3.06,0,0,1-.33-4.27l5.33-6.28,4-4.74,5.54-6.53a3,3,0,0,1,4.29-.35l10.36,8.77a3.06,3.06,0,0,1,.36,4.29l-5.63,6.64-4,4.74-5.26,6.18a3.05,3.05,0,0,1-4.3.33h0Z"/><path class="cls-1" d="M61.62,61.58l-.76.89a1.32,1.32,0,0,1-1.85.15l-2.67-2.24a1.32,1.32,0,0,1-.15-1.84l3.93-4.62A1.32,1.32,0,0,1,62,53.76L64.63,56a1.3,1.3,0,0,1,.15,1.84h0l-.53.62Z"/><path class="cls-1" d="M71,81.65l1.78,1.51a4.29,4.29,0,0,1,.49,6L53,113.2a4.28,4.28,0,0,1-6,.49l-.83-.71-6.45-5.45-1.49-1.26a4.28,4.28,0,0,1-.48-6l20.37-24a4.28,4.28,0,0,1,6-.49l.88.75Z"/><path class="cls-1" d="M40.22,107l-.53.6c-1.68,1.93-6.84,7.92-7.08,8.88L32,119.1l-3,6.84c-.27,1,.25,1.05.88,1l6.58-4.49,2.58-.94L46.13,113l.46-.57"/><path class="cls-1" d="M96.49,44,115.29,60l18.42,15.62,3.68,3.13a2.71,2.71,0,0,0,3.81-.24l2.31-2.73a2.72,2.72,0,0,0-.37-3.79"/><path class="cls-1" d="M143.21,72l-.06-.06h0l-2.63-2.23L127.95,59.08l-5.61-4.74-11.78-10-1.89-1.58,1.58-7.09L108,33.81a3,3,0,0,0-4.27.35"/><polyline class="cls-1" points="91.91 62.94 92.56 63.5 106.28 75.31"/><polyline class="cls-1" points="95.88 58.58 96.18 58.84 110.11 70.82 110.47 71.13"/><polyline class="cls-1" points="109.49 78.46 109.97 78.87 124.06 90.99"/><polyline class="cls-1" points="113.71 73.86 128.44 86.54 128.76 86.81"/><line class="cls-1" x1="64.26" y1="58.46" x2="68.06" y2="61.6"/><line class="cls-1" x1="61.65" y1="61.6" x2="65.45" y2="64.73"/></g></g></svg>