<svg xmlns="http://www.w3.org/2000/svg" viewBox="0 0 72.08 59.26"><defs><style>.cls-1,.cls-2{fill:none;stroke-miterlimit:10;stroke-width:3px;}.cls-1{stroke:#992663;}.cls-2{stroke:#515152;}</style></defs><title>Asset 1</title><g id="Layer_2" data-name="Layer 2"><g id="Layer_2-2" data-name="Layer 2"><polyline class="cls-1" points="41.71 7.83 33.98 17.27 33.14 18.27 32.96 18.48"/><line class="cls-1" x1="41.71" y1="7.83" x2="46.37" y2="2.13"/><path class="cls-2" d="M26.75,30.64l-.13.17"/><path class="cls-1" d="M53.47,40.69l2,1.73a1.59,1.59,0,0,1,.18,2.24h0l-1.43,1.68a1.6,1.6,0,0,1-2.24.18L29.47,27.41s-2.16,2.54-2.72,3.22"/><path class="cls-1" d="M42.47,31.37,46.4,34.7"/><path class="cls-1" d="M22.91,27.78l.2-.23,2.72-3.22-2.11-1.8a1.59,1.59,0,0,1-.32-2,1,1,0,0,1,.14-.2L25,18.61a1.61,1.61,0,0,1,2.25-.18l2.11,1.79,1.55-1.85a1.27,1.27,0,0,1,1.79-.15h0l.31.27,1.4,1.19a1.27,1.27,0,0,1,.15,1.79h0L33,23.31l2.68,2.27"/><path class="cls-1" d="M53.75,18a1.23,1.23,0,0,1,.14,1.72l-3.71,4.38-2.29,2.7L44.17,31.2a1.21,1.21,0,0,1-1.69.17l-6.84-5.8a1.22,1.22,0,0,1-.14-1.71l3.76-4.44,2.29-2.7,3.66-4.32a1.22,1.22,0,0,1,1.71-.14l.32.27"/><path class="cls-1" d="M50.45,8.25c2-2.41,3.14-1.71,4.5-.56l2.35,2c1.36,1.16,2.26,2.15.22,4.56"/><path class="cls-1" d="M60.88,17.08c1.76-2.08,3.33-1.77,4.77-.55l2.49,2.12c1.44,1.22,2,2.74.27,4.82"/><path class="cls-1" d="M61.17,33.56,58.76,36.4l-3.51,4.14a1.27,1.27,0,0,1-1.78.15l-7.07-6a1.27,1.27,0,0,1-.15-1.78l3.56-4.2,2.41-2.85,3.69-4.34a1.27,1.27,0,0,1,1.78-.15"/><path class="cls-1" d="M64.76,27.37a1.27,1.27,0,0,1,.15,1.78l-3.74,4.4"/><line class="cls-2" x1="64.43" y1="27.09" x2="64.49" y2="27.14"/><path class="cls-1" d="M21.11,18.59l-.71.86a.39.39,0,0,1-.55.05h0l-2.2-1.86a.39.39,0,0,1-.05-.55h0l2.85-3.38a.39.39,0,0,1,.55,0l2.2,1.87a.39.39,0,0,1,.05.55h0l-.56.63Z"/><path class="cls-1" d="M26.76,30.64l2,1.73A1.27,1.27,0,0,1,29,34.15l0,0L15.08,50.52a1.27,1.27,0,0,1-1.79.16l0,0L11.81,49.4,8,46.16l-1.9-1.58a1.27,1.27,0,0,1-.17-1.79l0,0L19.8,26.43a1.27,1.27,0,0,1,1.79-.17l0,0,1.5,1.27,3.64,3.08h0Z"/><path class="cls-1" d="M7.85,46.05l.11.11c-1,1.16-4.11,4.75-4.25,5.33s-.39,1.6-.39,1.6L1.55,57.17c-.17.58.15.63.53.58L6,55.05l1.55-.56,4.24-5.08h0"/><path class="cls-1" d="M41.71,7.83l5.54,4.69L53.75,18l3.94,3.35,6.74,5.71.05,0,.27.23,1.78,1.5a1.63,1.63,0,0,0,2.29-.15l1.38-1.63A1.61,1.61,0,0,0,70,24.85"/><path class="cls-1" d="M70,24.86l0,0L68.4,23.49,60.88,17.1l-3.38-2.85-7.07-6-1.14-1L50.23,3,48.91,1.92a1.82,1.82,0,0,0-2.54.22"/><line class="cls-1" x1="39.26" y1="19.41" x2="47.88" y2="26.82"/><polyline class="cls-1" points="41.36 16.55 41.55 16.71 50.17 24.13 50.39 24.32"/><polyline class="cls-1" points="49.81 28.72 49.81 28.72 58.54 36.23"/><polyline class="cls-1" points="52.33 25.95 61.17 33.55 61.17 33.56 61.36 33.72"/><line class="cls-1" x1="22.69" y1="16.73" x2="24.96" y2="18.6"/><line class="cls-1" x1="21.12" y1="18.6" x2="23.4" y2="20.49"/></g></g></svg>