<svg id="Layer_1" data-name="Layer 1" xmlns="http://www.w3.org/2000/svg" viewBox="0 0 66.45 126.59"><defs><style>.cls-1{fill:#404243;}.cls-2,.cls-3{fill:none;stroke:#e4e1e1;stroke-miterlimit:10;stroke-width:2px;}.cls-3{stroke-linecap:round;}</style></defs><title>bottle dark</title><path class="cls-1" d="M789.48,87.07v72.47a10.21,10.21,0,0,1-10.18,10.18h-44.1A10.21,10.21,0,0,1,725,159.53V87.07A22.84,22.84,0,0,1,747.8,64.29h18.91A22.84,22.84,0,0,1,789.48,87.07Zm-12.42,38.35a1.68,1.68,0,0,0-1.69-1.68H738.93a1.68,1.68,0,0,0-1.68,1.68,1.68,1.68,0,0,0,1.68,1.69h36.44A1.68,1.68,0,0,0,777.06,125.42Zm-3.14,14.5a1.68,1.68,0,0,0-1.69-1.68H738.93a1.68,1.68,0,0,0-1.68,1.68,1.68,1.68,0,0,0,1.68,1.69h33.31A1.68,1.68,0,0,0,773.93,139.92Zm-1.65-38.3a2.44,2.44,0,0,0-2.43-2.43H759.09V88.07a2.43,2.43,0,0,0-4.86,0V99.19H743.47a2.43,2.43,0,0,0,0,4.86h10.76v10.41a2.43,2.43,0,0,0,2.43,2.43,2.44,2.44,0,0,0,2.43-2.43V104.05h10.76A2.43,2.43,0,0,0,772.28,101.62Zm-1,31.05a1.69,1.69,0,0,0-1.69-1.68H738.93a1.68,1.68,0,0,0-1.68,1.68,1.68,1.68,0,0,0,1.68,1.69h30.69A1.69,1.69,0,0,0,771.31,132.67ZM768.75,148a1.68,1.68,0,0,0-1.69-1.68H738.93a1.68,1.68,0,0,0-1.68,1.68,1.68,1.68,0,0,0,1.68,1.69h28.13A1.68,1.68,0,0,0,768.75,148Z" transform="translate(-724.03 -44.12)"/><path class="cls-1" d="M775.38,123.74a1.68,1.68,0,1,1,0,3.37H738.93a1.68,1.68,0,0,1-1.68-1.69,1.68,1.68,0,0,1,1.68-1.68h36.44Z" transform="translate(-724.03 -44.12)"/><path class="cls-1" d="M772.24,138.24a1.68,1.68,0,1,1,0,3.37H738.93a1.68,1.68,0,0,1-1.68-1.69,1.68,1.68,0,0,1,1.68-1.68h33.31Z" transform="translate(-724.03 -44.12)"/><path class="cls-1" d="M769.86,99.19a2.43,2.43,0,0,1,1.71,4.15,2.41,2.41,0,0,1-1.71.71H759.09v10.41a2.44,2.44,0,0,1-2.43,2.43,2.43,2.43,0,0,1-2.43-2.43V104.05H743.47a2.44,2.44,0,0,1-2.43-2.43,2.43,2.43,0,0,1,2.43-2.43h10.76V88.07a2.43,2.43,0,0,1,4.86,0V99.19h10.76Z" transform="translate(-724.03 -44.12)"/><path class="cls-1" d="M769.63,131a1.68,1.68,0,0,1,0,3.37H738.93a1.69,1.69,0,0,1-1.19-2.88,1.67,1.67,0,0,1,1.19-.49h30.69Z" transform="translate(-724.03 -44.12)"/><path class="cls-1" d="M767.06,146.33a1.68,1.68,0,1,1,0,3.37H738.93a1.68,1.68,0,0,1-1.68-1.69,1.68,1.68,0,0,1,1.68-1.68h28.13Z" transform="translate(-724.03 -44.12)"/><path class="cls-1" d="M766,47.25V62.16a2.14,2.14,0,0,1-2.13,2.13H749.48a2.14,2.14,0,0,1-2.13-2.13V47.25a2.14,2.14,0,0,1,2.13-2.14h14.36A2.14,2.14,0,0,1,766,47.25Z" transform="translate(-724.03 -44.12)"/><path class="cls-2" d="M763.84,64.29h2.87a22.84,22.84,0,0,1,22.77,22.77v72.47a10.21,10.21,0,0,1-10.18,10.18h-44.1A10.21,10.21,0,0,1,725,159.53V87.07A22.84,22.84,0,0,1,747.8,64.29h1.68" transform="translate(-724.03 -44.12)"/><path class="cls-2" d="M763.84,64.29H749.48a2.14,2.14,0,0,1-2.13-2.13V47.25a2.14,2.14,0,0,1,2.13-2.14h14.36A2.14,2.14,0,0,1,766,47.25V62.16A2.14,2.14,0,0,1,763.84,64.29Z" transform="translate(-724.03 -44.12)"/><path class="cls-2" d="M772.24,141.61H738.93a1.68,1.68,0,0,1-1.68-1.69,1.68,1.68,0,0,1,1.68-1.68h33.31A1.68,1.68,0,1,1,772.24,141.61Z" transform="translate(-724.03 -44.12)"/><path class="cls-2" d="M775.38,127.11H738.93a1.68,1.68,0,0,1-1.68-1.69,1.68,1.68,0,0,1,1.68-1.68h36.44A1.68,1.68,0,1,1,775.38,127.11Z" transform="translate(-724.03 -44.12)"/><path class="cls-2" d="M767.06,149.7H738.93a1.68,1.68,0,0,1-1.68-1.69,1.68,1.68,0,0,1,1.68-1.68h28.13A1.68,1.68,0,1,1,767.06,149.7Z" transform="translate(-724.03 -44.12)"/><path class="cls-2" d="M769.63,134.36H738.93a1.69,1.69,0,0,1-1.19-2.88,1.67,1.67,0,0,1,1.19-.49h30.69A1.68,1.68,0,0,1,769.63,134.36Z" transform="translate(-724.03 -44.12)"/><path class="cls-3" d="M759.09,104.05v10.41a2.44,2.44,0,0,1-2.43,2.43,2.43,2.43,0,0,1-2.43-2.43V104.05" transform="translate(-724.03 -44.12)"/><path class="cls-3" d="M754.23,99.19V88.07a2.43,2.43,0,0,1,4.86,0V99.19" transform="translate(-724.03 -44.12)"/><path class="cls-3" d="M759.09,99.19h10.76a2.43,2.43,0,0,1,1.71,4.15,2.41,2.41,0,0,1-1.71.71H759.09" transform="translate(-724.03 -44.12)"/><path class="cls-3" d="M754.23,104.05H743.47a2.44,2.44,0,0,1-2.43-2.43,2.43,2.43,0,0,1,2.43-2.43h10.76" transform="translate(-724.03 -44.12)"/></svg>