<svg id="Capa_1" data-name="Capa 1" xmlns="http://www.w3.org/2000/svg" viewBox="0 0 74.22 70.41"><defs><style>.cls-1{fill:#404243;}.cls-2{fill:none;stroke:#e4e1e1;stroke-miterlimit:10;stroke-width:2px;}</style></defs><title>brief</title><path class="cls-1" d="M74.44,97.3c-0.95.13-9.92,0-10.58,0s-9.63.13-10.59,0,0-.92,1.26-1.84a3.53,3.53,0,0,0,1.38-2.3l0.47-3h15l0.47,3a3.53,3.53,0,0,0,1.38,2.3C74.44,96.39,75.43,97.17,74.44,97.3Z" transform="translate(-26.75 -27.95)"/><path class="cls-1" d="M80.81,31.48C82.84,29,86,28.2,88,29.77s1.87,4.86-.16,7.37L85.56,39.6,63.73,63.37c-2,2.51-1.56,2.4-3.5.84s-1.95-1.08.07-3.6L72,43.94l3-4.33Zm0.61,0.61a11.83,11.83,0,0,1,1.3,1.15s0.35-1.49,3.14-3.14A4.63,4.63,0,0,0,81.41,32.1Z" transform="translate(-26.75 -27.95)"/><path class="cls-1" d="M59.32,70.92C52.61,73.69,43,71.52,47,71.49s4.49-1,5.79-5C55.21,60.15,66,68.14,59.32,70.92Z" transform="translate(-26.75 -27.95)"/><path class="cls-1" d="M59.32,70.92c6.7-2.77-4.12-10.76-6.52-4.43-1.3,4-1.8,5-5.79,5S52.61,73.69,59.32,70.92Zm0.91-6.71c1.94,1.56,1.47,1.68,3.5-.84L85.56,39.6h0L82,43.94h13.6V78.61H32.08V43.94H72L60.31,60.61C58.28,63.12,58.29,62.64,60.23,64.21Z" transform="translate(-26.75 -27.95)"/><path class="cls-1" d="M97.08,87.27H30.64a2.89,2.89,0,0,1-2.89-2.89V42.5a2.89,2.89,0,0,1,2.89-2.89H75.09l-3,4.33h-40V78.61H95.63V43.94H82l3.53-4.33H97.08A2.89,2.89,0,0,1,100,42.5V84.38A2.89,2.89,0,0,1,97.08,87.27Z" transform="translate(-26.75 -27.95)"/><path class="cls-2" d="M73.19,95.46a3.53,3.53,0,0,1-1.38-2.3l-0.47-3h-15l-0.47,3a3.53,3.53,0,0,1-1.38,2.3c-1.26.92-2.24,1.71-1.26,1.84s9.92,0,10.59,0,9.63,0.13,10.58,0S74.44,96.39,73.19,95.46Z" transform="translate(-26.75 -27.95)"/><path class="cls-2" d="M47,71.49c4,0,4.49-1,5.79-5,2.4-6.33,13.22,1.66,6.52,4.43S43,71.52,47,71.49Z" transform="translate(-26.75 -27.95)"/><path class="cls-2" d="M72,43.94L60.31,60.61c-2,2.51-2,2-.07,3.6s1.47,1.68,3.5-.84L85.56,39.6l2.27-2.46c2-2.51,2.1-5.81.16-7.37s-5.15-.79-7.18,1.72l-5.72,8.12" transform="translate(-26.75 -27.95)"/><path class="cls-2" d="M82.71,33.25a11.83,11.83,0,0,0-1.3-1.15,4.63,4.63,0,0,1,4.44-2C83.07,31.75,82.71,33.25,82.71,33.25Z" transform="translate(-26.75 -27.95)"/><path class="cls-2" d="M75.09,39.61H30.64a2.89,2.89,0,0,0-2.89,2.89V84.38a2.89,2.89,0,0,0,2.89,2.89H97.08A2.89,2.89,0,0,0,100,84.38V42.5a2.89,2.89,0,0,0-2.89-2.89H85.57L82,43.94h13.6V78.61H32.08V43.94H72Z" transform="translate(-26.75 -27.95)"/></svg>