<svg id="Layer_1" data-name="Layer 1" xmlns="http://www.w3.org/2000/svg" viewBox="0 0 97.04 58.88"><defs><style>.cls-1{fill:#404243;}.cls-2,.cls-3{fill:none;stroke:#e4e1e1;stroke-miterlimit:10;stroke-width:2px;}.cls-3{stroke-linecap:round;}</style></defs><title>camera</title><path class="cls-1" d="M496,134.82v45.41a3.56,3.56,0,0,1-3.55,3.55H482.33V166.53a18.86,18.86,0,0,0,0-18V131.27h10.14A3.56,3.56,0,0,1,496,134.82Z" transform="translate(-399.98 -125.91)"/><path class="cls-1" d="M482.33,148.54a18.86,18.86,0,0,1,0,18v-18Z" transform="translate(-399.98 -125.91)"/><path class="cls-1" d="M482.33,166.53v17.26H424.72V167.94H452l0.25-.16A17.41,17.41,0,0,0,482.33,166.53Z" transform="translate(-399.98 -125.91)"/><path class="cls-1" d="M482.33,148.54v18a17.41,17.41,0,0,1-30.12,1.25,18.85,18.85,0,0,1-.25-20.08A17.41,17.41,0,0,1,482.33,148.54Zm-4.76,9A10.43,10.43,0,1,0,467.15,168,10.42,10.42,0,0,0,477.57,157.53Z" transform="translate(-399.98 -125.91)"/><path class="cls-1" d="M482.33,131.27v17.27a17.41,17.41,0,0,0-30.37-.85H424.72V131.27h57.61Zm-39.89,10.88v-5.81a0.26,0.26,0,0,0-.26-0.26H430a0.26,0.26,0,0,0-.26.26v5.81a0.26,0.26,0,0,0,.26.26h12.13A0.26,0.26,0,0,0,442.44,142.16Z" transform="translate(-399.98 -125.91)"/><path class="cls-1" d="M467.15,147.11a10.42,10.42,0,1,1-10.43,10.42A10.42,10.42,0,0,1,467.15,147.11Zm-5.7,10.42,5.7-5.69A5.69,5.69,0,0,0,461.45,157.53Z" transform="translate(-399.98 -125.91)"/><path class="cls-1" d="M467.15,151.84l-5.7,5.69A5.69,5.69,0,0,1,467.15,151.84Z" transform="translate(-399.98 -125.91)"/><path class="cls-1" d="M452.21,167.77l-0.25.16H424.72V147.69H452A18.85,18.85,0,0,0,452.21,167.77Z" transform="translate(-399.98 -125.91)"/><rect class="cls-1" x="29.8" y="10.18" width="12.65" height="6.33" rx="0.26" ry="0.26"/><path class="cls-1" d="M424.72,167.94v15.85h-10.1a3.61,3.61,0,0,0,3.6-3.61v-45.3a3.61,3.61,0,0,0-3.6-3.61h10.1v36.66Z" transform="translate(-399.98 -125.91)"/><path class="cls-1" d="M421.23,127.17V131a0.26,0.26,0,0,1-.26.26H408.83a0.26,0.26,0,0,1-.26-0.26v-3.85a0.26,0.26,0,0,1,.26-0.26H421A0.26,0.26,0,0,1,421.23,127.17Z" transform="translate(-399.98 -125.91)"/><path class="cls-1" d="M418.21,134.88v45.3a3.61,3.61,0,0,1-3.6,3.61h-10a3.61,3.61,0,0,1-3.6-3.61v-45.3a3.61,3.61,0,0,1,3.6-3.61h10A3.61,3.61,0,0,1,418.21,134.88Z" transform="translate(-399.98 -125.91)"/><path class="cls-2" d="M414.62,131.27a3.61,3.61,0,0,1,3.6,3.61v45.3a3.61,3.61,0,0,1-3.6,3.61" transform="translate(-399.98 -125.91)"/><path class="cls-2" d="M409.21,183.79h-4.63a3.61,3.61,0,0,1-3.6-3.61v-45.3a3.61,3.61,0,0,1,3.6-3.61h4.25" transform="translate(-399.98 -125.91)"/><path class="cls-2" d="M482.33,131.27h10.14a3.56,3.56,0,0,1,3.55,3.55v45.41a3.56,3.56,0,0,1-3.55,3.55H489.1" transform="translate(-399.98 -125.91)"/><polyline class="cls-2" points="20.99 5.37 24.74 5.37 82.35 5.37"/><polyline class="cls-2" points="9.22 57.88 14.63 57.88 24.74 57.88 82.35 57.88 89.11 57.88"/><polyline class="cls-2" points="24.74 5.37 24.74 21.78 24.74 42.03 24.74 57.88"/><rect class="cls-2" x="29.8" y="10.18" width="12.65" height="6.33" rx="0.26" ry="0.26"/><path class="cls-2" d="M421,131.27H408.83a0.26,0.26,0,0,1-.26-0.26v-3.85a0.26,0.26,0,0,1,.26-0.26H421a0.26,0.26,0,0,1,.26.26V131A0.26,0.26,0,0,1,421,131.27Z" transform="translate(-399.98 -125.91)"/><path class="cls-2" d="M482.33,148.54a18.86,18.86,0,0,1,0,18,17.41,17.41,0,0,1-30.12,1.25,18.85,18.85,0,0,1-.25-20.08A17.41,17.41,0,0,1,482.33,148.54Z" transform="translate(-399.98 -125.91)"/><line class="cls-2" x1="24.74" y1="21.78" x2="51.98" y2="21.78"/><line class="cls-2" x1="24.74" y1="42.03" x2="51.98" y2="42.03"/><circle class="cls-2" cx="67.17" cy="31.62" r="10.43"/><path class="cls-3" d="M461.45,157.53a5.69,5.69,0,0,1,5.7-5.69" transform="translate(-399.98 -125.91)"/></svg>