<svg id="Layer_1" data-name="Layer 1" xmlns="http://www.w3.org/2000/svg" viewBox="0 0 93.09 63.87"><defs><style>.cls-1{fill:#404243;}.cls-2,.cls-3{fill:none;stroke:#fff;stroke-miterlimit:10;stroke-width:2px;}.cls-3{stroke-linecap:round;}</style></defs><title>dash white</title><path class="cls-1" d="M525.09,249v55.1H511.54a6,6,0,0,1-11.9,1.55,5.75,5.75,0,0,1,0-1.55H459.41a6,6,0,1,1-11.92,1.38,6.37,6.37,0,0,1,0-1.38H434V249h91.09Zm-9.43,41.07a6,6,0,1,0-6,6A6,6,0,0,0,515.66,290.07Zm-1.11-20.52a12.92,12.92,0,1,0-12.92,12.92A12.91,12.91,0,0,0,514.55,269.55ZM500,290.07a6,6,0,1,0-6,6A6,6,0,0,0,500,290.07Zm-16.46-7.89V257.37h-41v24.81h41Z" transform="translate(-433 -248)"/><circle class="cls-1" cx="76.7" cy="42.07" r="5.96"/><path class="cls-1" d="M501.63,256.63a12.92,12.92,0,1,1-12.92,12.92A12.91,12.91,0,0,1,501.63,256.63Zm8,12.92a8,8,0,1,0-8,8A8,8,0,0,0,509.65,269.55Z" transform="translate(-433 -248)"/><circle class="cls-1" cx="68.63" cy="21.55" r="8.02"/><circle class="cls-1" cx="61.07" cy="42.07" r="5.96"/><path class="cls-1" d="M460.82,273.21a3.28,3.28,0,1,0,1.88-.6A3.26,3.26,0,0,0,460.82,273.21Zm22.75-15.84v24.81h-41V257.37h41Z" transform="translate(-433 -248)"/><path class="cls-1" d="M466,275.9a3.28,3.28,0,1,1-3.29-3.29A3.29,3.29,0,0,1,466,275.9Z" transform="translate(-433 -248)"/><circle class="cls-2" cx="61.07" cy="42.07" r="5.96"/><circle class="cls-2" cx="76.7" cy="42.07" r="5.96"/><circle class="cls-2" cx="68.63" cy="21.55" r="12.92"/><circle class="cls-2" cx="68.63" cy="21.55" r="8.02"/><rect class="cls-2" x="9.56" y="9.37" width="41.01" height="24.81"/><path class="cls-3" d="M450.19,269.16c8.43-7.8,16.92-8.42,25.49.07" transform="translate(-433 -248)"/><path class="cls-3" d="M466,275.9a3.28,3.28,0,1,1-3.29-3.29A3.29,3.29,0,0,1,466,275.9Z" transform="translate(-433 -248)"/><line class="cls-3" x1="23.41" y1="20.19" x2="27.82" y2="25.21"/><path class="cls-2" d="M440.6,249h84.49v55.1H511.54a6,6,0,0,1-11.9,1.55,5.75,5.75,0,0,1,0-1.55H459.41a6,6,0,1,1-11.92,1.38,6.37,6.37,0,0,1,0-1.38H434V249h6.6Z" transform="translate(-433 -248)"/></svg>