<svg id="Layer_2" data-name="Layer 2" xmlns="http://www.w3.org/2000/svg" viewBox="0 0 133.18 133.18"><defs><style>.cls-1,.cls-4,.cls-5{fill:none;}.cls-1{stroke:#000;}.cls-1,.cls-2,.cls-3,.cls-4,.cls-5{stroke-miterlimit:10;}.cls-1,.cls-3,.cls-4,.cls-5{stroke-width:3px;}.cls-2{fill:#f2fbff;stroke-width:5px;}.cls-2,.cls-5{stroke:#269793;}.cls-3,.cls-4{stroke:#972663;}</style></defs><title>diffcolour logo</title><path class="cls-1" d="M53.61,64.8"/><path class="cls-1" d="M53.83,52.79"/><path class="cls-1" d="M51.74,51.16"/><circle class="cls-2" cx="66.59" cy="66.59" r="64.09"/><polyline class="cls-3" points="84.75 28.2 67.96 48.69 66.83 50.07 66.59 50.34"/><path class="cls-4" d="M53,62.94l4-4.69-2.86-2.43a2.16,2.16,0,0,1-.25-3l1.93-2.28a2.16,2.16,0,0,1,3-.25l2.85,2.42,2.11-2.5a1.72,1.72,0,0,1,2.42-.2l2.31,2a1.72,1.72,0,0,1,.2,2.42l-2.11,2.5L97.11,82.82a2.16,2.16,0,0,1,.25,3l-1.9,2.24a2.16,2.16,0,0,1-3,.25L61.94,62.43,58.06,67"/><rect class="cls-4" x="70.62" y="47.14" width="23.64" height="15.4" rx="5.79" ry="5.79" transform="translate(-12.7 82.24) rotate(-49.7)"/><path class="cls-5" d="M88.24,44.47"/><path class="cls-5" d="M88.53,46.66"/><path class="cls-5" d="M90.32,48.18"/><path class="cls-4" d="M89.6,37.21c2.77-3.27,4.91-3,6.75-1.48l3.19,2.71c1.84,1.56,2.46,3.67-.31,6.94"/><path class="cls-4" d="M104.39,48.45c2.39-2.82,4.5-2.4,6.45-.75l3.38,2.87c2,1.65,2.76,3.71.37,6.53"/><path class="cls-5" d="M80.64,34.24"/><path class="cls-5" d="M80.46,37.7"/><rect class="cls-4" x="85.35" y="59.35" width="23.64" height="15.97" rx="5.79" ry="5.79" transform="translate(-17.03 97.89) rotate(-49.7)"/><path class="cls-4" d="M51.86,45h0a2.49,2.49,0,0,1,.28,3.51l-1.34,1.58a2.49,2.49,0,0,1-3.51.29h0A2.49,2.49,0,0,1,47,46.92l1.34-1.58A2.49,2.49,0,0,1,51.86,45Z"/><rect class="cls-4" x="29.29" y="69.29" width="32.5" height="16.23" rx="8.11" ry="8.11" transform="translate(-42.95 62.07) rotate(-49.7)"/><path class="cls-4" d="M33.16,87.33S27.16,94.1,27,95L26.46,97.2l-2.4,5.53c-0.22.8,0.2,0.85,0.72,0.79l5.34-3.65,2.1-.76,6.12-7.33"/><path class="cls-4" d="M78.84,36.25l33.22,28.17a2.2,2.2,0,0,0,3.09-.2L117,62a2.2,2.2,0,0,0-.31-3.08"/><path class="cls-5" d="M84.31,33.5"/><path class="cls-5" d="M88,36.26"/><path class="cls-5" d="M79.37,28"/><line class="cls-4" x1="78.51" y1="65.69" x2="77.76" y2="66.59"/><path class="cls-4" d="M116.77,59l-28-23.79L90,29.43l-1.79-1.52a2.46,2.46,0,0,0-3.46.28"/><line class="cls-4" x1="74.57" y1="51.13" x2="86.79" y2="61.64"/><line class="cls-4" x1="77.97" y1="47.74" x2="90.18" y2="58.25"/><line class="cls-4" x1="89" y1="63.86" x2="101.22" y2="74.37"/><line class="cls-4" x1="92.82" y1="60.47" x2="105.04" y2="70.98"/><line class="cls-4" x1="52.68" y1="47.96" x2="55.76" y2="50.51"/><line class="cls-4" x1="50.55" y1="50.51" x2="53.64" y2="53.06"/></svg>