<svg id="Layer_1" data-name="Layer 1" xmlns="http://www.w3.org/2000/svg" viewBox="0 0 111.17 60.14"><defs><style>.cls-1{fill:#404243;stroke:#e4e1e1;stroke-miterlimit:10;stroke-width:2px;}</style></defs><title>dollar</title><rect class="cls-1" x="1" y="1" width="109.17" height="58.14" rx="6.04" ry="6.04"/><ellipse class="cls-1" cx="55.67" cy="30.19" rx="20.57" ry="28.95"/><path class="cls-1" d="M258.72,301.25q1,0.3,2.06.65a18.83,18.83,0,0,1,2,.8,10.85,10.85,0,0,1,1.76,1.05,7,7,0,0,1,1.43,1.4,6.25,6.25,0,0,1,1,1.85,7.73,7.73,0,0,1,.34,2.4,10.46,10.46,0,0,1-.67,3.76,9.22,9.22,0,0,1-2,3.13,10.23,10.23,0,0,1-3.19,2.22,12.52,12.52,0,0,1-4.33,1l-0.26,2.92a1.62,1.62,0,0,1-.47,1,1.47,1.47,0,0,1-1.11.45H253l0.41-4.52a16.67,16.67,0,0,1-2.41-.53,17,17,0,0,1-2.28-.86,15.78,15.78,0,0,1-2.06-1.14A11.54,11.54,0,0,1,245,315.5l1.82-2.68a1.85,1.85,0,0,1,.64-0.57,1.71,1.71,0,0,1,.84-0.22,2.12,2.12,0,0,1,1,.3q0.54,0.3,1.19.72T252,313.9a7.63,7.63,0,0,0,1.92.67l0.81-8.89q-1-.28-2-0.63a16.34,16.34,0,0,1-2-.82,10.17,10.17,0,0,1-1.75-1.1,6.73,6.73,0,0,1-1.4-1.51,7.25,7.25,0,0,1-.94-2,9.26,9.26,0,0,1-.34-2.65,8.27,8.27,0,0,1,.66-3.25,8.54,8.54,0,0,1,1.94-2.82,10.25,10.25,0,0,1,3.14-2,12.43,12.43,0,0,1,4.29-.93l0.24-2.55a1.55,1.55,0,0,1,.48-1,1.5,1.5,0,0,1,1.1-.44h2.19l-0.39,4.2a12.57,12.57,0,0,1,4,1.33,13.22,13.22,0,0,1,2.83,2.08l-1.46,2.14a2.22,2.22,0,0,1-.64.72,1.45,1.45,0,0,1-.81.23,2.05,2.05,0,0,1-.76-0.18q-0.44-.18-1-0.45t-1.19-.55a10.1,10.1,0,0,0-1.38-.47Zm-2.87-8.44a7.2,7.2,0,0,0-1.86.48,4.09,4.09,0,0,0-1.25.8,3,3,0,0,0-.71,1,3.26,3.26,0,0,0-.23,1.21,3.23,3.23,0,0,0,.25,1.3,3.26,3.26,0,0,0,.7,1,5,5,0,0,0,1.07.8,9.27,9.27,0,0,0,1.37.63Zm1.65,21.86a5.06,5.06,0,0,0,3.09-1.4,4.15,4.15,0,0,0,1-2.95,3,3,0,0,0-.26-1.28,3.25,3.25,0,0,0-.71-1,4.87,4.87,0,0,0-1.07-.76,9.76,9.76,0,0,0-1.35-.59Z" transform="translate(-201.19 -274.59)"/><path class="cls-1" d="M208.21,286.21a6.06,6.06,0,0,1,6-6" transform="translate(-201.19 -274.59)"/><path class="cls-1" d="M214.25,329.39a6.06,6.06,0,0,1-6-6" transform="translate(-201.19 -274.59)"/><path class="cls-1" d="M304,323.34a6.06,6.06,0,0,1-6,6" transform="translate(-201.19 -274.59)"/><path class="cls-1" d="M297.94,280.17a6.06,6.06,0,0,1,6,6" transform="translate(-201.19 -274.59)"/></svg>