<svg id="Layer_2" data-name="Layer 2" xmlns="http://www.w3.org/2000/svg" viewBox="0 0 32.37 84.88"><defs><style>.cls-1{fill:#fcde4e;}.cls-2{fill:none;stroke:#fcde4e;stroke-miterlimit:10;}</style></defs><title>filled</title><path class="cls-1" d="M364.77,417.74h0.07l2,18.49h-9.14l2.26-18.8h0.08a2.62,2.62,0,0,1,2.34-2.43A2.7,2.7,0,0,1,364.77,417.74Z" transform="translate(-346.05 -414.5)"/><path class="cls-1" d="M374.79,440.86V445a4.64,4.64,0,0,1-4.63,4.63H354.41a4.65,4.65,0,0,1-4.64-4.63v-4.1a4.66,4.66,0,0,1,4.64-4.64h15.75A4.65,4.65,0,0,1,374.79,440.86Z" transform="translate(-346.05 -414.5)"/><path class="cls-1" d="M377.92,460.29V471h-3v-6.6a3.76,3.76,0,0,0-3.75-3.75H353.44a3.77,3.77,0,0,0-3.76,3.75V471h-3.13V460.29a8.29,8.29,0,0,1,8.26-8.25h14.85A8.29,8.29,0,0,1,377.92,460.29Z" transform="translate(-346.05 -414.5)"/><path class="cls-1" d="M374.92,475.82V471h3v19.62a8.29,8.29,0,0,1-8.26,8.26H354.81a8.29,8.29,0,0,1-8.26-8.26V471h3.13v4.82a3.77,3.77,0,0,0,3.76,3.76h17.73A3.77,3.77,0,0,0,374.92,475.82Z" transform="translate(-346.05 -414.5)"/><path class="cls-2" d="M377.92,471v19.62a8.29,8.29,0,0,1-8.26,8.26H354.81a8.29,8.29,0,0,1-8.26-8.26V460.29a8.29,8.29,0,0,1,8.26-8.25h14.85a8.29,8.29,0,0,1,8.26,8.25V471Z" transform="translate(-346.05 -414.5)"/><path class="cls-2" d="M360,418.05a4.21,4.21,0,0,1,.05-0.62,2.62,2.62,0,0,1,2.34-2.43,2.7,2.7,0,0,1,2.38,2.74c0,0.1,0,.2,0,0.31" transform="translate(-346.05 -414.5)"/><path class="cls-2" d="M366.85,436.22h3.31a4.65,4.65,0,0,1,4.63,4.64V445a4.64,4.64,0,0,1-4.63,4.63H354.41a4.65,4.65,0,0,1-4.64-4.63v-4.1a4.66,4.66,0,0,1,4.64-4.64h12.44Z" transform="translate(-346.05 -414.5)"/><polyline class="cls-2" points="13.95 2.68 13.92 2.92 11.66 21.72"/><polyline class="cls-2" points="18.73 2.68 18.79 3.23 20.8 21.72"/><path class="cls-2" d="M374.92,471v4.82a3.77,3.77,0,0,1-3.75,3.76H353.44a3.77,3.77,0,0,1-3.76-3.76V464.4a3.77,3.77,0,0,1,3.76-3.75h17.73a3.76,3.76,0,0,1,3.75,3.75V471Z" transform="translate(-346.05 -414.5)"/></svg>