<svg id="Layer_1" data-name="Layer 1" xmlns="http://www.w3.org/2000/svg" viewBox="0 0 95.13 85.36"><defs><style>.cls-1{fill:#414243;}.cls-2,.cls-3{fill:none;stroke:#e4e1e1;stroke-linecap:round;stroke-linejoin:round;}.cls-2{stroke-width:2px;}</style></defs><title>history</title><path class="cls-1" d="M487.16,223.35a4.25,4.25,0,0,1-2.38,5.5l-17.17,6.79L464,245.53a4.25,4.25,0,0,1-5.43,2.53l-0.43-.15a4.26,4.26,0,0,1-2.53-5.44l4-11.12,0.24-.67a5,5,0,0,1,2.44-2.54l19.19-7.59a4.25,4.25,0,0,1,5.5,2.38Z" transform="translate(-413.46 -191.39)"/><path class="cls-1" d="M507.59,234.07a41.68,41.68,0,0,1-71.36,29.27l6.29-6.15a32.55,32.55,0,1,0-9.13-29.94l10.31-1.39-10.32,14.66-4.43,6.3L414.46,226l10.32,1.21A41.69,41.69,0,0,1,507.59,234.07Z" transform="translate(-413.46 -191.39)"/><path class="cls-2" d="M479.06,273.63a41.74,41.74,0,0,1-42.83-10.29l6.29-6.15a32.55,32.55,0,1,0-9.13-29.94l10.31-1.39-10.32,14.66-4.43,6.3L414.46,226l10.32,1.21A41.69,41.69,0,1,1,479.06,273.63Z" transform="translate(-413.46 -191.39)"/><path class="cls-2" d="M467.61,235.64l17.17-6.79a4.25,4.25,0,0,0,2.38-5.5l-0.17-.42a4.25,4.25,0,0,0-5.5-2.38l-19.19,7.59a5,5,0,0,0-2.44,2.54" transform="translate(-413.46 -191.39)"/><path class="cls-2" d="M459.86,230.68l-0.24.67-4,11.12a4.26,4.26,0,0,0,2.53,5.44l0.43,0.15a4.25,4.25,0,0,0,5.43-2.53l3.61-9.89" transform="translate(-413.46 -191.39)"/><line class="cls-3" x1="55.09" y1="29.32" x2="54.66" y2="29.16"/></svg>