<svg id="Layer_1" data-name="Layer 1" xmlns="http://www.w3.org/2000/svg" viewBox="0 0 67.09 90.09"><defs><style>.cls-1{fill:#404243;}.cls-2{fill:none;stroke:#e4e1e1;stroke-miterlimit:10;stroke-width:2px;}</style></defs><title>information</title><path class="cls-1" d="M778.48,279.92v59a9.86,9.86,0,0,1-9.83,9.83H723.22a9.86,9.86,0,0,1-9.82-9.83V270.47a9.85,9.85,0,0,1,9.82-9.83h32.71v12a7.33,7.33,0,0,0,7.31,7.31h15.24Zm-9.61,17.54a1.73,1.73,0,0,0-1.73-1.72H723.88a1.68,1.68,0,0,0-1.21.51,1.72,1.72,0,0,0,1.21,2.95h43.26A1.74,1.74,0,0,0,768.87,297.46Zm0,10a1.74,1.74,0,0,0-1.73-1.73H723.88a1.71,1.71,0,0,0-1.21.51,1.72,1.72,0,0,0,1.21,2.95h43.26a1.74,1.74,0,0,0,1.22-.51A1.71,1.71,0,0,0,768.87,307.42Zm0,9.95a1.73,1.73,0,0,0-1.73-1.72H723.88a1.74,1.74,0,0,0-1.72,1.72,1.73,1.73,0,0,0,1.72,1.73h43.26A1.74,1.74,0,0,0,768.87,317.37Z" transform="translate(-712.4 -259.64)"/><path class="cls-1" d="M778.48,278.07v1.85H763.24a7.33,7.33,0,0,1-7.31-7.31v-12h3.55C762.48,263.34,776.24,275.19,778.48,278.07Z" transform="translate(-712.4 -259.64)"/><path class="cls-1" d="M767.14,295.74a1.73,1.73,0,0,1,0,3.46H723.88a1.72,1.72,0,0,1-1.21-2.95,1.68,1.68,0,0,1,1.21-.51h43.26Z" transform="translate(-712.4 -259.64)"/><path class="cls-1" d="M767.14,305.69a1.74,1.74,0,0,1,1.73,1.73,1.71,1.71,0,0,1-.51,1.21,1.74,1.74,0,0,1-1.22.51H723.88a1.72,1.72,0,0,1-1.21-2.95,1.71,1.71,0,0,1,1.21-.51h43.26Z" transform="translate(-712.4 -259.64)"/><path class="cls-1" d="M767.14,315.64a1.73,1.73,0,0,1,0,3.46H723.88a1.73,1.73,0,0,1-1.72-1.73,1.74,1.74,0,0,1,1.72-1.72h43.26Z" transform="translate(-712.4 -259.64)"/><path class="cls-2" d="M778.48,279.92v59a9.86,9.86,0,0,1-9.83,9.83H723.22a9.86,9.86,0,0,1-9.82-9.83V270.47a9.85,9.85,0,0,1,9.82-9.83h36.26c3,2.7,16.76,14.55,19,17.43v1.85Z" transform="translate(-712.4 -259.64)"/><path class="cls-2" d="M767.14,299.2H723.88a1.72,1.72,0,0,1-1.21-2.95,1.68,1.68,0,0,1,1.21-.51h43.26A1.73,1.73,0,0,1,767.14,299.2Z" transform="translate(-712.4 -259.64)"/><path class="cls-2" d="M767.14,309.14H723.88a1.72,1.72,0,0,1-1.21-2.95,1.71,1.71,0,0,1,1.21-.51h43.26a1.74,1.74,0,0,1,1.73,1.73,1.71,1.71,0,0,1-.51,1.21A1.74,1.74,0,0,1,767.14,309.14Z" transform="translate(-712.4 -259.64)"/><path class="cls-2" d="M767.14,319.1H723.88a1.73,1.73,0,0,1-1.72-1.73,1.74,1.74,0,0,1,1.72-1.72h43.26A1.73,1.73,0,0,1,767.14,319.1Z" transform="translate(-712.4 -259.64)"/><path class="cls-2" d="M778.48,279.92H763.24a7.33,7.33,0,0,1-7.31-7.31v-12" transform="translate(-712.4 -259.64)"/></svg>