<svg id="Layer_1" data-name="Layer 1" xmlns="http://www.w3.org/2000/svg" viewBox="0 0 163.15 56.89"><defs><style>.cls-1{fill:#f2fbff;}</style></defs><title>inkfndry text white white</title><path class="cls-1" d="M1.32,39.77A9.13,9.13,0,0,1,0,34.49a24.43,24.43,0,0,1,.79-6.08q0.79-3.09,1.76-5.78t1.8-4.78a18,18,0,0,0,1-3.09c-0.06.13,0.13,0.3,0.57,0.5a7.85,7.85,0,0,1,1.45.9,7.62,7.62,0,0,1,1.5,1.54,4,4,0,0,1,.7,2.44,5.33,5.33,0,0,1-.88,2.59H8.6q-1.5,3.19-3,6.78a17.22,17.22,0,0,0-1.54,6.78,5.13,5.13,0,0,0,.26,1.79,1.16,1.16,0,0,0,1.23.7q1.5,0,3.7-2a17.67,17.67,0,0,0,4-6.63l0.18-.1a0.8,0.8,0,0,1,.62.3l0.18,0.2q0-.1-0.4,1.64a17.92,17.92,0,0,1-1.45,3.89A14.72,14.72,0,0,1,9.52,40,6.17,6.17,0,0,1,5,41.81a4.87,4.87,0,0,1-1.85-.4A4,4,0,0,1,1.32,39.77Zm11.61-28a4.27,4.27,0,0,1-1.32,1.79,2.93,2.93,0,0,1-1.85.7,1.83,1.83,0,0,1-1.76-1A4.82,4.82,0,0,1,7.47,11a3.89,3.89,0,0,1,.84-2.59,2.69,2.69,0,0,1,4.09-.1,3.39,3.39,0,0,1,.54,3.48h0Z" transform="translate(0.02 -0.03)"/><path class="cls-1" d="M25,39.77a10,10,0,0,1-1.23-5.28,25.72,25.72,0,0,1,.66-5.63q0.66-2.94,1.54-5.63l-1.72,3.69q-0.92,2-1.8,4t-1.67,3.89Q20,36.7,19.36,38t-0.92,1.89a6.55,6.55,0,0,1-1,1.3,2.18,2.18,0,0,1-1.28.7,2.46,2.46,0,0,1-2.82-1.74,14.69,14.69,0,0,1-.7-4.93,29.92,29.92,0,0,1,.79-6.73,60.39,60.39,0,0,1,1.76-6.23A37.82,37.82,0,0,1,17,17.72,5.51,5.51,0,0,1,18.1,16a3.89,3.89,0,0,1,1.45.35,16.36,16.36,0,0,1,1.72.85,22.26,22.26,0,0,1,2,1.2q-0.71,1.7-1.8,3.79t-2.16,4.49a44.65,44.65,0,0,0-1.85,5,17.35,17.35,0,0,0-.79,5.08q2.9-5.88,5-9.67T25.23,21q1.45-2.29,2.38-3.49t1.5-2A6.65,6.65,0,0,0,30,14a13.28,13.28,0,0,0,.53-2.09,3.52,3.52,0,0,1,.75.45,8.44,8.44,0,0,1,1.36,1.2A16.6,16.6,0,0,1,34,15.07a2.94,2.94,0,0,1,.62,1.74,8.08,8.08,0,0,1-.13,1.1,2.37,2.37,0,0,1-.48,1.2q-0.71,1.7-1.76,3.79t-2,4.39a47.82,47.82,0,0,0-1.67,4.59,14.62,14.62,0,0,0-.7,4.29A6.6,6.6,0,0,0,28.06,38a1,1,0,0,0,1,.75q1.14,0,3-2a21.08,21.08,0,0,0,3.65-6.63l0.18-.1a0.73,0.73,0,0,1,.53.3l0.18,0.2A15.26,15.26,0,0,1,36,32.47a28.11,28.11,0,0,1-1.63,3.84,17,17,0,0,1-2.6,3.79,4.61,4.61,0,0,1-3.48,1.69,4.07,4.07,0,0,1-1.67-.4A4.21,4.21,0,0,1,25,39.77Z" transform="translate(0.02 -0.03)"/><path class="cls-1" d="M55.35,15.94a1.13,1.13,0,0,1,.53.6l-0.09.1a38,38,0,0,0-3.56,4q-2.07,2.59-4.09,5.58a44.88,44.88,0,0,0,.88,6Q49.63,35,50.25,37t1.1,3.24a10.07,10.07,0,0,0,.57,1.3l-0.62.5A3.28,3.28,0,0,1,49.63,41a19.58,19.58,0,0,1-2-2.44q-1-1.44-1.94-3a30.55,30.55,0,0,1-1.54-3q-1.32,2.29-2.24,4.09a20.25,20.25,0,0,0-1.28,2.89c0-.07-0.06,0-0.18.25a7.19,7.19,0,0,1-.48.8,4.18,4.18,0,0,1-.79.85,1.69,1.69,0,0,1-1.1.4H37.16a2,2,0,0,1-1.1-.5,3.64,3.64,0,0,1-.92-1.4,7.75,7.75,0,0,1-.4-2.84,33.88,33.88,0,0,1,.79-6.58q0.79-3.89,1.94-7.92t2.38-7.77Q41.08,11.08,42,8.59q0.7-2,1.5-4.14a16.23,16.23,0,0,0,1-4.34q0.18,0.1,1,.45a10.74,10.74,0,0,1,1.67,1A7.71,7.71,0,0,1,48.71,3a3.1,3.1,0,0,1,.7,2A6.37,6.37,0,0,1,49,7.35l-1.36,3.09q-0.92,2.09-2.07,4.83T43.16,21Q42,24,41,26.91t-1.67,5.43a17.48,17.48,0,0,0-.66,4.24,63.18,63.18,0,0,1,5.54-9.37,70.42,70.42,0,0,1,5.28-6.53,53.56,53.56,0,0,1,5.46-5A4.49,4.49,0,0,1,55.35,15.94Z" transform="translate(0.02 -0.03)"/><path class="cls-1" d="M57.54,56.81a3.33,3.33,0,0,1-.88.1,3.88,3.88,0,0,1-2.46-.7,4.44,4.44,0,0,1-1.32-1.69,6.53,6.53,0,0,1-.53-2.14q-0.09-1.15-.09-2A39.81,39.81,0,0,1,53,43.1q0.75-4,1.8-8T57,27.43q1.14-3.69,1.94-6.38-1.67-3.19-2.51-4.63a6.35,6.35,0,0,1-.84-1.74,0.45,0.45,0,0,1,.18-0.35,0.55,0.55,0,0,1,.35-0.15q1.06,0.2,2.29.35t2.46,0.35Q62,11.59,62.73,9.5t1.41-4.09l0.62-2.09q0.26-.9.48-1.79A6.56,6.56,0,0,0,65.46,0q0.18,0.1,1,.45a10.73,10.73,0,0,1,1.67,1,7.71,7.71,0,0,1,1.58,1.45,3,3,0,0,1,.7,1.94A7.26,7.26,0,0,1,70,7q-0.4,1.25-1,2.64t-1.23,2.94q-0.66,1.55-1.19,3,3,0.3,4,.45a1.3,1.3,0,0,1,1,.35q0,0.3-1.63.35L66,16.84q-0.79,2-1.54,4T63,25.18q0.61,1.4,1.45,3.14a38.1,38.1,0,0,1,1.54,3.74,33.42,33.42,0,0,1,1.19,4.34,24.94,24.94,0,0,1,.48,5,16.83,16.83,0,0,1-1.23,6.73,17.67,17.67,0,0,1-2.86,4.68,13.79,13.79,0,0,1-3.34,2.84A7.54,7.54,0,0,1,57.54,56.81Zm-0.79-8.67c-0.06.4-.1,0.81-0.13,1.25s0,0.88,0,1.35a4.81,4.81,0,0,0,.22,1.55,0.89,0.89,0,0,0,.92.65A4.28,4.28,0,0,0,61,51.49,12.61,12.61,0,0,0,63.26,48a19.69,19.69,0,0,0,1.36-4.24,19.37,19.37,0,0,0,.44-3.69,23,23,0,0,0-.92-6.53,60.6,60.6,0,0,0-2-5.73q-1.67,4.78-3.17,10a74.73,74.73,0,0,0-2.22,10.33h0Zm1.76-30.7q0.26,0.4.53,0.75a6.38,6.38,0,0,1,.53.85q0.18-.49.31-1t0.31-1H58.91c-0.38,0-.57.07-0.57,0.2a0.56,0.56,0,0,0,.17.2h0Z" transform="translate(0.02 -0.03)"/><path class="cls-1" d="M81.3,39.77a10,10,0,0,1-1.23-5.28,25.72,25.72,0,0,1,.66-5.63q0.66-2.94,1.54-5.63l-1.72,3.69q-0.92,2-1.8,4t-1.67,3.89Q76.29,36.7,75.67,38t-0.92,1.89a6.55,6.55,0,0,1-1,1.3,2.18,2.18,0,0,1-1.28.7,2.46,2.46,0,0,1-2.82-1.74,14.69,14.69,0,0,1-.7-4.93,29.92,29.92,0,0,1,.79-6.73,60.39,60.39,0,0,1,1.76-6.23,37.82,37.82,0,0,1,1.85-4.54A5.51,5.51,0,0,1,74.41,16a3.89,3.89,0,0,1,1.45.35,16.36,16.36,0,0,1,1.72.85,22.26,22.26,0,0,1,2,1.2q-0.71,1.7-1.8,3.79t-2.16,4.49a44.65,44.65,0,0,0-1.85,5A17.35,17.35,0,0,0,73,36.74q2.9-5.88,5-9.67T81.54,21Q83,18.7,83.92,17.5t1.5-2a6.65,6.65,0,0,0,.84-1.5,13.28,13.28,0,0,0,.53-2.09,3.52,3.52,0,0,1,.75.45,8.44,8.44,0,0,1,1.36,1.2,16.6,16.6,0,0,1,1.32,1.59,2.94,2.94,0,0,1,.62,1.74,8.08,8.08,0,0,1-.13,1.1,2.37,2.37,0,0,1-.48,1.2q-0.71,1.7-1.76,3.79t-2,4.39A47.82,47.82,0,0,0,84.8,32a14.62,14.62,0,0,0-.7,4.29,6.6,6.6,0,0,0,.22,1.84,1,1,0,0,0,1,.75q1.14,0,3-2A21.08,21.08,0,0,0,92,30.21l0.18-.1a0.73,0.73,0,0,1,.53.3l0.18,0.2a15.26,15.26,0,0,1-.57,1.94,28.11,28.11,0,0,1-1.63,3.84,17,17,0,0,1-2.5,3.68,4.61,4.61,0,0,1-3.48,1.69,4.07,4.07,0,0,1-1.67-.4A4.21,4.21,0,0,1,81.3,39.77Z" transform="translate(0.02 -0.03)"/><path class="cls-1" d="M115.7,37.07q-0.35.6-.92,1.4A9.59,9.59,0,0,1,113.37,40a7.83,7.83,0,0,1-1.89,1.25,5.51,5.51,0,0,1-2.38.5,5.62,5.62,0,0,1-2.33-.65,3.45,3.45,0,0,1-1.8-2.54,18.33,18.33,0,0,1-2.38,2.09,6.27,6.27,0,0,1-4,1.3,5.07,5.07,0,0,1-3.26-1,8,8,0,0,1-2.11-2.54,11.89,11.89,0,0,1-1.14-3.24,16.5,16.5,0,0,1-.35-3.24,18.76,18.76,0,0,1,.88-5.33,21.54,21.54,0,0,1,2.55-5.54,16.23,16.23,0,0,1,4-4.34A8.72,8.72,0,0,1,104.44,15a9.21,9.21,0,0,1,2.42.3,7,7,0,0,1,1.89.8q1.32-3.79,2.33-6.53t1.54-4.14l0.62-2.09q0.26-.9.48-1.79a6.56,6.56,0,0,0,.22-1.5q0.18,0.1,1,.45a10.73,10.73,0,0,1,1.67,1,7.71,7.71,0,0,1,1.58,1.45,3,3,0,0,1,.7,1.94,7.72,7.72,0,0,1-.09,1.1,8.49,8.49,0,0,1-.35,1.4q-0.62,1.6-2.29,5.43t-3.4,8.31q-1.8,4.49-3.17,8.82a24.38,24.38,0,0,0-1.36,6.83q0,2.09,1.5,2.09t3.7-2a17.67,17.67,0,0,0,4-6.63l0.18-.1a0.8,0.8,0,0,1,.62.3l0.18,0.2a12.87,12.87,0,0,1-.57,2.29A18.37,18.37,0,0,1,115.7,37.07Zm-11.09-.3a25,25,0,0,1,.44-6.68,72,72,0,0,1,1.94-8,5.1,5.1,0,0,0-2.77-1.3,5.34,5.34,0,0,0-3.39.9,14.32,14.32,0,0,0-4.09,4.73A13.65,13.65,0,0,0,94.85,33a5.7,5.7,0,0,0,.35,3.49,5.36,5.36,0,0,0,2,2.33,5.1,5.1,0,0,0,2.64.85,3,3,0,0,0,2.38-1,11.88,11.88,0,0,0,1.45-1,7.6,7.6,0,0,0,1-.94h0Z" transform="translate(0.02 -0.03)"/><path class="cls-1" d="M137.53,30.07a1,1,0,0,1,.44.4,16.44,16.44,0,0,1-.57,2,22.85,22.85,0,0,1-1.67,3.84A18.77,18.77,0,0,1,133.09,40a4.61,4.61,0,0,1-3.48,1.69,4,4,0,0,1-3.12-1.84A8.65,8.65,0,0,1,125,34.47a25.38,25.38,0,0,1,.75-6,55.72,55.72,0,0,1,1.72-5.78,12.57,12.57,0,0,1-1.89.25q-0.92,0-1.89.15h-0.66a3.43,3.43,0,0,1-.75-0.1q-1.23,2.29-2.24,4.29l-1.72,3.39q-0.88,1.7-1.58,3.09a0.4,0.4,0,0,1-.22-0.1,0.41,0.41,0,0,0-.22-0.1l-0.18-.2q0.09-.3.53-1.5t1-2.89q0.57-1.69,1.23-3.59t1.19-3.49a5.43,5.43,0,0,1-2-2.64,8.4,8.4,0,0,1-.53-2.64,5.72,5.72,0,0,1,.18-1.64,0.81,0.81,0,0,1,.88-0.55,9.53,9.53,0,0,1,1.1.1,14,14,0,0,1,1.54.3q0.79,0.2,1.5.45a2.4,2.4,0,0,1,.88.45,8.14,8.14,0,0,1-.35.85,2.41,2.41,0,0,1-.26.35,0.4,0.4,0,0,0,.4.3c0.26,0.07.59,0.13,1,.2a12.32,12.32,0,0,0,1.28.15h3.78c-0.06.13,0,0,.22-0.4s0.45-.9.75-1.5,0.57-1.25.84-1.94a12.25,12.25,0,0,0,.57-1.94,3.09,3.09,0,0,1,.7.45A15.26,15.26,0,0,1,134,13.39a10.91,10.91,0,0,1,1.36,1.54,2.94,2.94,0,0,1,.62,1.74,6,6,0,0,1,0,.75,3.47,3.47,0,0,1-.13.85q-0.71,1.6-1.8,3.79t-2.16,4.58a43.41,43.41,0,0,0-1.8,4.83,15.83,15.83,0,0,0-.75,4.63,6.61,6.61,0,0,0,.22,1.84,0.91,0.91,0,0,0,.92.75q1.23,0,3.08-2a21.73,21.73,0,0,0,3.61-6.63l0.18-.1A0.72,0.72,0,0,1,137.53,30.07Z" transform="translate(0.02 -0.03)"/><path class="cls-1" d="M162.78,30.07a1,1,0,0,1,.35.4q0-.6-0.31,1a21.47,21.47,0,0,1-1.23,3.94,14,14,0,0,1-2.77,4.29,6.29,6.29,0,0,1-4.84,2,4.74,4.74,0,0,1-1.89-.4,4.26,4.26,0,0,1-1.72-1.5,10.94,10.94,0,0,1-.62,1.5,14.14,14.14,0,0,0-.62,1.4l2.64,0.45q1.49,0.25,3.17.4a18,18,0,0,0,3.52,0,12.8,12.8,0,0,0,3.7-1,7.66,7.66,0,0,1-.35,2.24,7.56,7.56,0,0,1-1.06,2.14A6.88,6.88,0,0,1,159,48.62a4.66,4.66,0,0,1-2.33.8,14.3,14.3,0,0,1-5.1-.45A41,41,0,0,1,147,47.23a12.35,12.35,0,0,1-3.78,4.83,7.39,7.39,0,0,1-4.14,1.35,6.74,6.74,0,0,1-1.23-.1,4.75,4.75,0,0,1-4.22-5.08,5.09,5.09,0,0,1,.88-3.09,6.32,6.32,0,0,1,2.07-1.84,7.56,7.56,0,0,1,2.33-.85,10.79,10.79,0,0,1,1.67-.2h2.47q1.76,0,2.11-.9l0.88-2.28a10.6,10.6,0,0,1-2.2,1.89,4.77,4.77,0,0,1-2.64.8,4.11,4.11,0,0,1-3.08-1.84,8.46,8.46,0,0,1-1.5-5.43,26.53,26.53,0,0,1,.79-6.78,46.1,46.1,0,0,1,1.85-5.58q1.06-2.59,2.16-5a32.58,32.58,0,0,0,1.8-5.13,4,4,0,0,1,.79.45,8.65,8.65,0,0,1,1.41,1.15,12.83,12.83,0,0,1,1.32,1.54,2.94,2.94,0,0,1,.62,1.74,6.75,6.75,0,0,1-.79,3l-1.76,3.74q-1,2-1.89,4.19a34.47,34.47,0,0,0-1.54,4.34,15.16,15.16,0,0,0-.62,4.09,6.33,6.33,0,0,0,.31,2.14,1.29,1.29,0,0,0,1.36.85q1.5,0,3.61-2.59t3.87-9A50.2,50.2,0,0,1,153,18.57a17.18,17.18,0,0,0,1.72-4.39,3.72,3.72,0,0,1,.75.4,8.84,8.84,0,0,1,1.41,1.1,12.65,12.65,0,0,1,1.36,1.5,2.73,2.73,0,0,1,.62,1.69q-0.09.5-.22,1.3a6.17,6.17,0,0,1-.57,1.69q-0.79,1.6-1.67,3.44T154.78,29a28.25,28.25,0,0,0-1.28,3.74,13.93,13.93,0,0,0-.48,3.54,5.07,5.07,0,0,0,.26,1.84,1.17,1.17,0,0,0,1.23.65q1.49,0,3.74-2a17.3,17.3,0,0,0,4-6.63l0.18-.1A0.72,0.72,0,0,1,162.78,30.07ZM143.25,46.82a3.13,3.13,0,0,1,1-.1,2.76,2.76,0,0,1,.53,0,2.48,2.48,0,0,0,.44,0h0.44l-2.2-.6q-1-.2-2-0.5a7,7,0,0,0-2-.3,5.38,5.38,0,0,0-2.77.75,2.71,2.71,0,0,0-1.28,2.54,2.09,2.09,0,0,0,.92,1.89,3.58,3.58,0,0,0,2,.6,4.13,4.13,0,0,0,2.42-1,9.54,9.54,0,0,0,2.49-3.31v0Z" transform="translate(0.02 -0.03)"/></svg>