<svg id="Layer_1" data-name="Layer 1" xmlns="http://www.w3.org/2000/svg" viewBox="0 0 75 74.57"><defs><style>.cls-1{fill:#404243;}.cls-2{fill:none;stroke:#e4e1e1;stroke-linecap:round;stroke-miterlimit:10;stroke-width:2px;}</style></defs><title>inksource</title><path class="cls-1" d="M636.19,303.52a4.74,4.74,0,0,1-3.43-4.32c0-2.5,2.32-4.53,5.24-4.66h0.28l30.54,1,2.77-11.11-16.29-.32h0a2.57,2.57,0,1,1,0-5L673,279.62l3.27-13.52a4.5,4.5,0,0,1,8.87,1.36l-8.53,34.7a4.51,4.51,0,0,1-3.71,2.53l-15.89-.4v10.28a4.68,4.68,0,0,1,2.45,3.32l0.16,12.1h13.17c1.89,0,3.43,1.15,3.43,2.58s-1.54,2.58-3.43,2.58H636.51c-1.89,0-3.43-1.15-3.43-2.58s1.35-2.44,3.08-2.57H649.6V318a4.71,4.71,0,0,1,2.45-3.32l-0.26-.22V304.23l-10.35-.38-5.64,16.94a3.35,3.35,0,0,1-3.12,2.35l-17.32-.52v0.1c-1.8,0-3.24-1.11-3.24-2.46s1.45-2.46,3.24-2.46h0l15.8,0.5Z" transform="translate(-611.12 -261.58)"/><path class="cls-2" d="M676.24,266.09a4.5,4.5,0,0,1,8.87,1.36l-8.53,34.7a4.51,4.51,0,0,1-3.71,2.53l-15.89-.4v10.28a4.68,4.68,0,0,1,2.45,3.32l0.16,12.1h13.16" transform="translate(-611.12 -261.58)"/><polyline class="cls-2" points="65.12 4.51 61.85 18.03 44.18 17.45"/><path class="cls-2" d="M655.3,284.08a2.57,2.57,0,1,1,0-5" transform="translate(-611.12 -261.58)"/><polyline class="cls-2" points="44.18 22.49 60.47 22.82 57.7 33.93 27.16 32.96"/><path class="cls-2" d="M638.28,303.87a6.38,6.38,0,0,1-2.09-.34,4.74,4.74,0,0,1-3.43-4.32c0-2.5,2.32-4.53,5.24-4.66h0.28" transform="translate(-611.12 -261.58)"/><polyline class="cls-2" points="25.07 41.94 20.04 56.68 4.24 56.19"/><path class="cls-2" d="M652.06,314.67A4.71,4.71,0,0,0,649.6,318v12H636.51" transform="translate(-611.12 -261.58)"/><path class="cls-2" d="M636.51,330h-0.35c-1.73.13-3.08,1.23-3.08,2.57s1.54,2.58,3.43,2.58h36.23c1.89,0,3.43-1.15,3.43-2.58s-1.53-2.58-3.43-2.58h0" transform="translate(-611.12 -261.58)"/><path class="cls-2" d="M615.36,322.71c-1.8,0-3.24-1.11-3.24-2.46s1.45-2.46,3.24-2.46" transform="translate(-611.12 -261.58)"/><path class="cls-2" d="M615.21,322.61h0.15l17.32,0.52a3.35,3.35,0,0,0,3.12-2.35l5.64-16.94,10.35,0.38v10.22" transform="translate(-611.12 -261.58)"/></svg>