<svg id="Layer_1" data-name="Layer 1" xmlns="http://www.w3.org/2000/svg" viewBox="0 0 66 66"><defs><style>.cls-1{fill:#404243;}.cls-2{fill:none;stroke:#e4e1e1;stroke-miterlimit:10;stroke-width:2px;}</style></defs><title>instagram</title><path class="cls-1" d="M402,330.78V298.72a10.54,10.54,0,0,0-10.51-10.51H359.45A10.54,10.54,0,0,0,349,298.72v32.06a10.53,10.53,0,0,0,10.5,10.5h32.06A10.54,10.54,0,0,0,402,330.78Zm-59,3.55V295.67A12.7,12.7,0,0,1,355.67,283h38.67A12.7,12.7,0,0,1,407,295.67v38.67A12.7,12.7,0,0,1,394.33,347H355.67A12.7,12.7,0,0,1,343,334.33Z" transform="translate(-342 -282)"/><path class="cls-1" d="M391.52,341.28H359.45a10.53,10.53,0,0,1-10.5-10.5V298.72a10.54,10.54,0,0,1,10.5-10.51h32.06A10.54,10.54,0,0,1,402,298.72v32.06A10.54,10.54,0,0,1,391.52,341.28Zm4.57-43.63a3.82,3.82,0,1,0-3.82,3.82A3.82,3.82,0,0,0,396.08,297.66Zm-4.59,17.17c0-.14,0-0.29,0-0.43a16.76,16.76,0,0,0-33.52,0c0,0.14,0,.29,0,0.43s0,0.26,0,.39a16.76,16.76,0,0,0,33.52,0C391.5,315.09,391.5,315,391.5,314.83Z" transform="translate(-342 -282)"/><circle class="cls-1" cx="50.26" cy="15.66" r="3.82"/><path class="cls-1" d="M391.49,314.4c0,0.14,0,.29,0,0.43s0,0.26,0,.39a16.76,16.76,0,0,1-33.52,0c0-.13,0-0.26,0-0.39s0-.29,0-0.43A16.76,16.76,0,0,1,391.49,314.4Zm-5.92.43a10.84,10.84,0,1,0-10.84,10.84A10.84,10.84,0,0,0,385.57,314.83Z" transform="translate(-342 -282)"/><circle class="cls-1" cx="32.73" cy="32.83" r="10.84"/><rect class="cls-2" x="1" y="1" width="64" height="64" rx="12.67" ry="12.67"/><circle class="cls-2" cx="50.26" cy="15.66" r="3.82"/><path class="cls-2" d="M358,314.4a16.76,16.76,0,0,1,33.52,0" transform="translate(-342 -282)"/><path class="cls-2" d="M391.49,315.22a16.76,16.76,0,0,1-33.52,0" transform="translate(-342 -282)"/><path class="cls-2" d="M391.49,314.4c0,0.14,0,.29,0,0.43s0,0.26,0,.39a16.76,16.76,0,0,1-33.52,0c0-.13,0-0.26,0-0.39s0-.29,0-0.43A16.76,16.76,0,0,1,391.49,314.4Z" transform="translate(-342 -282)"/><circle class="cls-2" cx="32.73" cy="32.83" r="10.84"/><path class="cls-2" d="M17.45,6.21H49.52A10.5,10.5,0,0,1,60,16.72V48.78A10.51,10.51,0,0,1,49.52,59.28H17.46A10.51,10.51,0,0,1,7,48.78V16.72A10.5,10.5,0,0,1,17.45,6.21Z"/></svg>