<svg id="Capa_1" data-name="Capa 1" xmlns="http://www.w3.org/2000/svg" viewBox="0 0 56.89 85.79"><defs><style>.cls-1{fill:#404243;}.cls-2{fill:none;stroke:#e4e1e1;stroke-miterlimit:10;stroke-width:2px;}</style></defs><title>location-pin</title><path class="cls-1" d="M166.41,378.93c0,6.1-3.89,16-11.9,30.37-5.66,10.15-11.23,18.61-11.46,19L139,434.46l-4.08-6.19c-0.24-.36-5.8-8.81-11.46-19-8-14.35-11.9-24.28-11.9-30.37A27.44,27.44,0,0,1,166.41,378.93Zm-13.22-.19A14.23,14.23,0,1,0,139,393,14.23,14.23,0,0,0,153.19,378.74Z" transform="translate(-110.52 -350.49)"/><circle class="cls-1" cx="28.44" cy="28.25" r="14.23"/><path class="cls-2" d="M139,351.49a27.47,27.47,0,0,0-27.44,27.44c0,6.1,3.89,16,11.9,30.37,5.66,10.15,11.23,18.61,11.46,19l4.08,6.19,4.08-6.19c0.24-.36,5.81-8.81,11.46-19,8-14.35,11.9-24.28,11.9-30.37A27.47,27.47,0,0,0,139,351.49Z" transform="translate(-110.52 -350.49)"/><circle class="cls-2" cx="28.44" cy="28.25" r="14.23"/></svg>