<svg id="Layer_1" data-name="Layer 1" xmlns="http://www.w3.org/2000/svg" viewBox="0 0 306 306"><defs><style>.cls-1{fill:none;stroke:#95989a;stroke-miterlimit:10;stroke-width:6px;}</style></defs><title>logo grey</title><path class="cls-1" d="M630,280A150,150,0,1,1,480,130,150,150,0,0,1,630,280Z" transform="translate(-327 -127)"/><polyline class="cls-1" points="180.66 81.15 156.16 111.05 153.53 114.27 152.96 114.92"/><line class="cls-1" x1="180.66" y1="81.15" x2="195.46" y2="63.09"/><path class="cls-1" d="M542.69,310.41l0.89,0.75,7.81,6.63a5,5,0,0,1,.64,7v0.06l-4.52,5.33a5,5,0,0,1-7,.64h-0.06l-71.53-60.59-8.63,10.21-0.37.56" transform="translate(-327 -127)"/><path class="cls-1" d="M536.49,305.15l1.21,1" transform="translate(-327 -127)"/><path class="cls-1" d="M508.57,281.47l15.28,13" transform="translate(-327 -127)"/><path class="cls-1" d="M506.77,280l1.63,1.38" transform="translate(-327 -127)"/><path class="cls-1" d="M504.35,277.92l1.61,1.36" transform="translate(-327 -127)"/><path class="cls-1" d="M496.74,271.44l1.46,1.24" transform="translate(-327 -127)"/><path class="cls-1" d="M491.48,267l2.46,2.09" transform="translate(-327 -127)"/><path class="cls-1" d="M490.08,265.8l1.06,0.89" transform="translate(-327 -127)"/><path class="cls-1" d="M448.1,271.43l0.64-.76,8.63-10.23-6.7-5.68a5.06,5.06,0,0,1-.55-7.1l4.52-5.34a5.06,5.06,0,0,1,7.1-.58l6.67,5.66,4.93-5.85a4,4,0,0,1,5.64-.49h0l1,0.83,4.44,3.76a4,4,0,0,1,.5,5.63h0L480,257.12l10,8.45" transform="translate(-327 -127)"/><path class="cls-1" d="M508.57,281.47l-0.17-.14L506.77,280l-0.81-.69-1.61-1.39-6.15-5.22-1.46-1.24-2.82-2.34L491.46,267l-0.34-.29-1.06-.89-0.18-.16a5.8,5.8,0,0,1-.67-8.15l10.71-12.59,7.24-8.54,10.39-12.26a5.79,5.79,0,0,1,8.15-.67l18.67,15.82a5.81,5.81,0,0,1,.67,8.16L534.5,259.85l-7.25,8.55-10.53,12.4A5.79,5.79,0,0,1,508.57,281.47Z" transform="translate(-327 -127)"/><path class="cls-1" d="M535.36,209.5c6.48-7.64,10-5.44,14.26-1.79l7.47,6.34c4.3,3.64,7.39,6.49.91,14.13" transform="translate(-327 -127)"/><path class="cls-1" d="M568.45,237.49c5.59-6.59,10.54-5.61,15.09-1.74l7.93,6.72c4.55,3.86,6.45,8.68.86,15.27" transform="translate(-327 -127)"/><path class="cls-1" d="M543.58,311.16l-0.89-.75-5-4.23-1.21-1-12.56-10.71h0a5.81,5.81,0,0,1-.63-8.12l10.13-11.94,7.67-9L551.61,253a5.79,5.79,0,0,1,8.15-.67L579.45,269a5.81,5.81,0,0,1,.68,8.16l-10.7,12.62-7.66,9-10,11.74a5.8,5.8,0,0,1-8.18.63h0Z" transform="translate(-327 -127)"/><path class="cls-1" d="M442.37,242.28l-1.44,1.7a2.5,2.5,0,0,1-3.51.28L432.34,240a2.5,2.5,0,0,1-.29-3.5l7.46-8.79a2.5,2.5,0,0,1,3.5-.29l5.08,4.31a2.48,2.48,0,0,1,.29,3.49h0l-1,1.17Z" transform="translate(-327 -127)"/><path class="cls-1" d="M460.28,280.44l3.38,2.87a8.15,8.15,0,0,1,.94,11.44L425.92,340.4a8.14,8.14,0,0,1-11.43.94L412.92,340l-12.25-10.35-2.83-2.4a8.13,8.13,0,0,1-.92-11.43l38.71-45.65a8.14,8.14,0,0,1,11.43-.94l1.68,1.43Z" transform="translate(-327 -127)"/><path class="cls-1" d="M401.7,328.52l-1,1.14c-3.19,3.67-13,15.06-13.46,16.88-0.53,2.18-1.24,5.07-1.24,5.07l-5.62,13c-0.51,1.86.47,2,1.68,1.85l12.51-8.54,4.91-1.78L412.92,340l0.87-1.08" transform="translate(-327 -127)"/><path class="cls-1" d="M508.63,208.92l35.74,30.31,35,29.69,7,5.94a5.15,5.15,0,0,0,7.24-.46l4.39-5.18a5.17,5.17,0,0,0-.71-7.21" transform="translate(-327 -127)"/><path class="cls-1" d="M597.43,262.14l-0.12-.11h0l-5-4.24-23.88-20.25-10.67-9-22.38-19-3.6-3,3-13.47-4.19-3.56a5.78,5.78,0,0,0-8.11.67" transform="translate(-327 -127)"/><polyline class="cls-1" points="171.65 116.76 172.94 117.87 200.25 141.38"/><polyline class="cls-1" points="179.59 108.82 180.18 109.33 207.5 132.83 208.2 133.43"/><polyline class="cls-1" points="205.42 146.57 206.35 147.37 234.03 171.18"/><polyline class="cls-1" points="214.36 138.62 242.36 162.72 242.97 163.24"/><line class="cls-1" x1="120.39" y1="109.35" x2="127.61" y2="115.32"/><line class="cls-1" x1="115.42" y1="115.32" x2="122.64" y2="121.28"/></svg>