<svg id="Layer_2" data-name="Layer 2" xmlns="http://www.w3.org/2000/svg" viewBox="0 0 65.5 55.73"><defs><style>.cls-1{fill:#982663;}.cls-2,.cls-3{fill:none;stroke-linecap:round;stroke-miterlimit:10;stroke-width:2px;}.cls-2{stroke:#fff;}.cls-3{stroke:#982663;}</style></defs><title>market tattoo</title><polygon class="cls-1" points="0.73 17.91 65.07 17.91 54.18 0 11.13 0 0.73 17.91"/><line class="cls-2" x1="12.1" y1="6.39" x2="18.17" y2="2.51"/><path class="cls-1" d="M246.55,438c4.68-.31,7.28-2.74,7.66-7.39l-65.5-.09c0.92,4.3,3.3,7.38,9.22,7.46,3.61-.26,6-2.26,7.3-5.93a8.68,8.68,0,0,0,8.46,5.93q5.9-.13,7.91-5.93c1.38,3.72,3.79,6.29,8.79,5.93q6.16-.32,7.39-5.93C239.38,436.11,242.14,438.32,246.55,438Z" transform="translate(-188.72 -410.39)"/><path class="cls-1" d="M196.68,441.13v22.26c0,1.49,1.19,2.37,2.8,2.74h44a3.25,3.25,0,0,0,2.49-3.48V441.13a11.16,11.16,0,0,1-6.4-2.19s0.17,14.69,0,15.87a2.54,2.54,0,0,1-1.37,1.73l-33.06.18c-1.27-.27-2-0.91-2-2v-15.8C202.15,440.17,200.16,440.84,196.68,441.13Z" transform="translate(-188.72 -410.39)"/><line class="cls-2" x1="10.85" y1="11.12" x2="22.98" y2="3.37"/><line class="cls-3" x1="37.91" y1="39.32" x2="43.98" y2="35.44"/><line class="cls-3" x1="36.66" y1="44.05" x2="48.8" y2="36.3"/></svg>