<?xml version="1.0" encoding="utf-8"?>
<!-- Generator: Adobe Illustrator 19.0.0, SVG Export Plug-In . SVG Version: 6.00 Build 0)  -->
<svg version="1.1" id="Layer_2" xmlns="http://www.w3.org/2000/svg" xmlns:xlink="http://www.w3.org/1999/xlink" x="0px" y="0px"
	 viewBox="-264 393.2 65.5 55.7" style="enable-background:new -264 393.2 65.5 55.7;" xml:space="preserve">
<style type="text/css">
	.st0{fill:#982663;}
	.st1{fill:none;stroke:#982663;stroke-width:2;stroke-linecap:round;stroke-miterlimit:10;}
</style>
<title>market tattoo</title>
<polygon class="st0" points="-263.3,411.1 -198.9,411.1 -209.8,393.2 -252.9,393.2 "/>
<path class="st0" d="M-206.2,420.8c4.7-0.3,7.3-2.7,7.7-7.4l-65.5-0.1c0.9,4.3,3.3,7.4,9.2,7.5c3.6-0.3,6-2.3,7.3-5.9
	c1.2,3.6,4.6,6,8.5,5.9c3.9-0.1,6.6-2.1,7.9-5.9c1.4,3.7,3.8,6.3,8.8,5.9c4.1-0.2,6.6-2.2,7.4-5.9
	C-213.3,418.9-210.6,421.1-206.2,420.8z"/>
<path class="st0" d="M-256,423.9v22.3c0,1.5,1.2,2.4,2.8,2.7h44c1.6-0.4,2.6-1.9,2.5-3.5v-21.5c-2.3-0.1-4.5-0.8-6.4-2.2
	c0,0,0.2,14.7,0,15.9c-0.2,0.8-0.7,1.4-1.4,1.7l-33.1,0.2c-1.3-0.3-2-0.9-2-2v-15.8C-250.6,423-252.6,423.6-256,423.9z"/>
<line class="st1" x1="-226.1" y1="432.5" x2="-220" y2="428.6"/>
<line class="st1" x1="-227.3" y1="437.2" x2="-215.2" y2="429.5"/>
</svg>
