<svg id="Layer_2" data-name="Layer 2" xmlns="http://www.w3.org/2000/svg" viewBox="0 0 133.18 133.18"><defs><style>.cls-1,.cls-2{fill:none;stroke:#e4e1e1;stroke-miterlimit:10;}.cls-1{stroke-width:5px;}.cls-2{stroke-width:3px;}</style></defs><title>newlogo B&amp;amp;W</title><polygon points="66.59 50.34 78.43 35.91 67.96 48.69 66.84 50.06 66.59 50.34"/><path class="cls-1" d="M500.22,281a64.09,64.09,0,1,1-64.09-64.09A64.09,64.09,0,0,1,500.22,281Z" transform="translate(-369.54 -214.42)"/><polyline class="cls-2" points="78.43 35.91 67.96 48.69 66.84 50.06 66.59 50.34"/><line class="cls-2" x1="78.43" y1="35.91" x2="84.75" y2="28.2"/><path class="cls-2" d="M460.8,292.21l5.85,5a2.15,2.15,0,0,1,.24,3L465,302.48a2.16,2.16,0,0,1-3,.25l-30.52-25.88-3.87,4.59" transform="translate(-369.54 -214.42)"/><path class="cls-2" d="M445.88,279.56l1.54,1.3,10,8.49" transform="translate(-369.54 -214.42)"/><path class="cls-2" d="M422.52,277.36l0.08-.09,3.88-4.6-2.86-2.43a2.15,2.15,0,0,1-.44-2.76,1.31,1.31,0,0,1,.19-0.27l1.93-2.28a2.17,2.17,0,0,1,3-.25l2.85,2.42,2.1-2.5a1.72,1.72,0,0,1,2.42-.2l0.42,0.36,1.9,1.61a1.72,1.72,0,0,1,.2,2.42l-2.11,2.49,6.79,5.76" transform="translate(-369.54 -214.42)"/><path class="cls-2" d="M445.88,279.56l-0.06-.05L442.91,277a5.8,5.8,0,0,1-.67-8.16l2.42-2.86,3.1-3.66,2.28-2.69a5.82,5.82,0,0,1,8.16-.67l2.91,2.48a5.8,5.8,0,0,1,.68,8.15l-2.36,2.78-3.1,3.65L454,278.84a5.79,5.79,0,0,1-6.31,1.72A5.47,5.47,0,0,1,445.88,279.56Z" transform="translate(-369.54 -214.42)"/><path class="cls-2" d="M459.14,251.63q0.33-.39.66-0.72c2.45-2.5,4.4-2.19,6.09-.76l3.19,2.7c1.69,1.43,2.35,3.34.29,6.18-0.18.24-.38,0.5-0.6,0.76" transform="translate(-369.54 -214.42)"/><path class="cls-2" d="M473.93,262.87c2.39-2.82,4.5-2.4,6.45-.75l3.38,2.87c1.95,1.65,2.76,3.71.37,6.53" transform="translate(-369.54 -214.42)"/><path class="cls-2" d="M476.07,274.16a5.8,5.8,0,0,1,.67,8.16l-2.42,2.86L471.05,289l-2.11,2.49a5.81,5.81,0,0,1-8.14.69l0,0-3.35-2.84a5.81,5.81,0,0,1-.68-8.16l2.18-2.57,3.28-3.86,2.35-2.77a5.8,5.8,0,0,1,8.16-.67" transform="translate(-369.54 -214.42)"/><path class="cls-2" d="M420.05,264.87a2.48,2.48,0,0,1-3.46-3.53l1.34-1.59a2.49,2.49,0,0,1,4.38,1.62,2.33,2.33,0,0,1-.2,1,2.12,2.12,0,0,1-.39.64l-1.34,1.58A2,2,0,0,1,420.05,264.87Z" transform="translate(-369.54 -214.42)"/><path class="cls-2" d="M407.94,305.91a7.93,7.93,0,0,1-3.33-1.69,8.36,8.36,0,0,1-1.95-2.43,8.14,8.14,0,0,1,1-9l10.52-12.41a8.13,8.13,0,0,1,11.43-.94,8.3,8.3,0,0,1,1.76,2.09,8.14,8.14,0,0,1-.82,9.34L416,303.28A8.13,8.13,0,0,1,407.94,305.91Z" transform="translate(-369.54 -214.42)"/><path class="cls-2" d="M402.7,301.75l0,0c-0.49.56-5.92,6.77-6.14,7.66s-0.53,2.17-.53,2.17l-2.4,5.53c-0.22.79,0.2,0.85,0.72,0.79l5.34-3.65,2.1-.76,6.13-7.34" transform="translate(-369.54 -214.42)"/><path class="cls-2" d="M448.38,250.67L458.2,259l14.52,12.32,3.35,2.84,5.52,4.68a2.21,2.21,0,0,0,3.1-.2l1.87-2.21a2.19,2.19,0,0,0-.25-3" transform="translate(-369.54 -214.42)"/><polyline class="cls-2" points="78.52 65.68 78.13 66.14 77.88 66.44 77.76 66.59"/><path class="cls-2" d="M486.31,273.4l-0.06,0-2.14-1.81-10.19-8.65L469.37,259l-9.57-8.12-1.54-1.3,1.28-5.76-1.79-1.52a2.47,2.47,0,0,0-3.46.29" transform="translate(-369.54 -214.42)"/><polyline class="cls-2" points="74.57 51.13 75.12 51.6 86.79 61.64"/><polyline class="cls-2" points="77.97 47.73 78.22 47.94 89.89 57.99 90.19 58.25"/><polyline class="cls-2" points="89 63.86 89.39 64.2 101.22 74.37"/><polyline class="cls-2" points="92.82 60.46 104.78 70.76 105.04 70.98"/><line class="cls-2" x1="52.68" y1="47.96" x2="55.76" y2="50.51"/><line class="cls-2" x1="50.56" y1="50.51" x2="53.64" y2="53.06"/></svg>