<svg id="Layer_2" data-name="Layer 2" xmlns="http://www.w3.org/2000/svg" viewBox="0 0 52.94 43.49"><defs><style>.cls-1,.cls-2{fill:none;stroke-miterlimit:10;stroke-width:2px;}.cls-1{stroke:#992663;}.cls-2{stroke:#515152;}</style></defs><title>purple gun</title><polyline class="cls-1" points="30.65 5.67 24.95 12.63 24.34 13.37 24.2 13.52"/><line class="cls-1" x1="30.65" y1="5.67" x2="34.09" y2="1.46"/><path class="cls-2" d="M299.63,400.55l-0.1.12" transform="translate(-280.01 -378.06)"/><path class="cls-1" d="M319.33,408l1.5,1.27a1.17,1.17,0,0,1,.13,1.65h0l-1.05,1.24a1.18,1.18,0,0,1-1.65.14l-16.62-14.1s-1.59,1.87-2,2.38" transform="translate(-280.01 -378.06)"/><path class="cls-1" d="M311.23,401.09l2.89,2.45" transform="translate(-280.01 -378.06)"/><path class="cls-1" d="M296.8,398.44l0.15-.17,2-2.38-1.56-1.32a1.17,1.17,0,0,1-.24-1.5,0.71,0.71,0,0,1,.1-0.15l1.05-1.24a1.18,1.18,0,0,1,1.66-.14l1.55,1.32,1.14-1.36a0.94,0.94,0,0,1,1.32-.11h0l0.23,0.2,1,0.88a0.94,0.94,0,0,1,.11,1.32h0l-1.15,1.36,2,1.68" transform="translate(-280.01 -378.06)"/><path class="cls-1" d="M319.54,391.25a0.9,0.9,0,0,1,.1,1.27l-2.74,3.23-1.69,2L312.48,401a0.89,0.89,0,0,1-1.25.12l-5-4.27a0.9,0.9,0,0,1-.1-1.26l2.78-3.28,1.69-2,2.7-3.19a0.9,0.9,0,0,1,1.26-.1l0.23,0.2" transform="translate(-280.01 -378.06)"/><path class="cls-1" d="M317.11,384c1.51-1.77,2.32-1.26,3.32-.41l1.74,1.47c1,0.85,1.67,1.59.16,3.37" transform="translate(-280.01 -378.06)"/><path class="cls-1" d="M324.8,390.55c1.3-1.54,2.45-1.31,3.52-.41l1.84,1.56c1.06,0.9,1.5,2,.2,3.56" transform="translate(-280.01 -378.06)"/><path class="cls-1" d="M325,402.7l-1.78,2.1-2.59,3.05a0.94,0.94,0,0,1-1.31.11l-5.21-4.43a0.94,0.94,0,0,1-.11-1.31l2.63-3.09,1.78-2.1,2.72-3.2a0.94,0.94,0,0,1,1.31-.11" transform="translate(-280.01 -378.06)"/><path class="cls-1" d="M327.66,398.14a0.94,0.94,0,0,1,.11,1.31L325,402.69" transform="translate(-280.01 -378.06)"/><line class="cls-2" x1="47.41" y1="19.87" x2="47.45" y2="19.91"/><path class="cls-1" d="M295.47,391.66l-0.52.63a0.29,0.29,0,0,1-.4,0h0L292.91,391a0.29,0.29,0,0,1,0-.4h0l2.1-2.49a0.29,0.29,0,0,1,.41,0L297,389.4a0.29,0.29,0,0,1,0,.4h0l-0.41.47Z" transform="translate(-280.01 -378.06)"/><path class="cls-1" d="M299.64,400.55l1.5,1.27a0.94,0.94,0,0,1,.13,1.32v0L291,415.21a0.94,0.94,0,0,1-1.32.12h0l-1.08-.94L285.79,412l-1.4-1.17a0.94,0.94,0,0,1-.13-1.32v0l10.23-12a0.94,0.94,0,0,1,1.32-.13h0l1.1,0.94,2.69,2.28h0Z" transform="translate(-280.01 -378.06)"/><path class="cls-1" d="M285.69,411.91l0.08,0.08a35.84,35.84,0,0,0-3.13,3.93l-0.29,1.18-1.31,3c-0.12.43,0.11,0.47,0.39,0.43l2.91-2,1.14-.41,3.13-3.74h0" transform="translate(-280.01 -378.06)"/><path class="cls-1" d="M310.66,383.72l4.09,3.46,4.79,4.06,2.91,2.47,5,4.21,0,0,0.2,0.17,1.31,1.11a1.2,1.2,0,0,0,1.69-.11l1-1.2a1.19,1.19,0,0,0-.14-1.65" transform="translate(-280.01 -378.06)"/><path class="cls-1" d="M331.55,396.29l0,0-1.17-1-5.55-4.71-2.5-2.1L317.09,384l-0.84-.71,0.7-3.14-1-.83a1.34,1.34,0,0,0-1.87.16" transform="translate(-280.01 -378.06)"/><line class="cls-1" x1="28.85" y1="14.21" x2="35.21" y2="19.68"/><polyline class="cls-1" points="30.4 12.1 30.54 12.22 36.9 17.69 37.06 17.83"/><polyline class="cls-1" points="36.63 21.07 36.63 21.07 43.07 26.61"/><polyline class="cls-1" points="38.49 19.04 45 24.64 45 24.65 45.15 24.77"/><line class="cls-1" x1="16.63" y1="12.23" x2="18.3" y2="13.61"/><line class="cls-1" x1="15.47" y1="13.61" x2="17.15" y2="15"/></svg>