<?xml version="1.0" encoding="utf-8"?>
<!-- Generator: Adobe Illustrator 19.0.0, SVG Export Plug-In . SVG Version: 6.00 Build 0)  -->
<svg version="1.1" id="Layer_2" xmlns="http://www.w3.org/2000/svg" xmlns:xlink="http://www.w3.org/1999/xlink" x="0px" y="0px"
	 viewBox="-247 396.8 100.6 48.1" style="enable-background:new -247 396.8 100.6 48.1;" xml:space="preserve">
<style type="text/css">
	.st0{fill:#992663;}
	.st1{fill:#982663;}
	.st2{fill:none;stroke:#982663;stroke-width:2;stroke-miterlimit:10;}
</style>
<title>purple bottles</title>
<g id="XMLID_1_">
	<g>
		<path class="st0" d="M-168.1,428.5v10.7c0,2.5-2,4.5-4.5,4.5h-8.1c-2.5,0-4.5-2-4.5-4.5v-10.7h1.7v2.6c0,1.1,0.9,2.1,2.1,2.1h9.7
			c1.1,0,2-0.9,2.1-2.1v-2.6H-168.1z"/>
		<path class="st0" d="M-179.1,409.5l1.2-10.3c0.1-0.6,0.6-1.1,1.3-1.2c0.8,0.1,1.3,0.7,1.3,1.5h0l1.2,10H-179.1L-179.1,409.5z"/>
		<path class="st0" d="M-172.3,416.8h-8.6c-1.4,0-2.5-1.1-2.5-2.5v-2.2c0-1.4,1.1-2.5,2.5-2.5l1.8,0l5-0.1h1.8
			c1.4,0,2.5,1.1,2.5,2.5v2.3C-169.8,415.7-170.9,416.8-172.3,416.8z"/>
		<path class="st0" d="M-183.5,431.1v-2.6h-1.7v-5.8c0-2.5,2-4.5,4.5-4.5h8.1c2.5,0,4.5,2,4.5,4.5v5.8h-1.5v2.6
			c-0.1,1.2-1,2.1-2.1,2.1h-9.7C-182.6,433.2-183.5,432.2-183.5,431.1z M-183.1,425v5.8c0,1.1,0.9,1.9,1.9,1.9h9
			c1.1-0.1,1.9-0.9,1.9-1.9v-2.4h-0.1V425c-0.1-1-0.9-1.9-1.9-1.9h-9h-0.1C-182.4,423.2-183.1,424-183.1,425z"/>
		<path class="st1" d="M-165.3,439.1v-10.7h1.7v2.6c0,1.2,0.9,2,2,2.1c0,0,0.1,0,0.1,0h9.7c0.1,0,0.1,0,0.2,0c1-0.1,1.8-0.9,1.9-1.9
			c0-0.1,0-0.1,0-0.2v-2.5h1.6v10.6c0,0.2,0,0.3,0,0.5c-0.2,2.3-2.1,4-4.5,4h-8.1c-2.3,0-4.3-1.8-4.6-4c0-0.1,0-0.2,0-0.4
			C-165.3,439.2-165.3,439.2-165.3,439.1z"/>
		<path class="st1" d="M-165.3,439.2c0,0.1,0,0.2,0,0.4C-165.2,439.5-165.3,439.4-165.3,439.2z"/>
		<path class="st1" d="M-160.7,443.7c-2.4,0-4.4-1.8-4.6-4.1c0.2,2.3,2.2,4,4.6,4h8.1c2.3,0,4.2-1.8,4.5-4c-0.2,2.3-2.1,4.1-4.5,4.1
			H-160.7z"/>
		<path class="st1" d="M-163.6,431v-2.6h0.1L-163.6,431c0.1,1,0.9,2,2,2.1C-162.6,433.1-163.6,432.2-163.6,431z"/>
		<path class="st1" d="M-188.3,428.5v10.6c0,2.5-2,4.5-4.5,4.5h-8.2c-2.5,0-4.5-2-4.5-4.5v-10.7h1.7v2.6c0,0.1,0,0.1,0,0.2
			c0.1,0.9,0.8,1.6,1.7,1.8c0.1,0,0.3,0,0.4,0h9.7c0.1,0,0.3,0,0.4,0c1-0.2,1.7-1,1.7-2v-2.5H-188.3z"/>
		<polygon class="st1" points="-188.3,428.4 -188.3,428.5 -189.9,428.5 -189.9,428.4 -188.4,428.4 		"/>
		<path class="st1" d="M-188.3,422.6v5.8h-0.1L-188.3,422.6c-0.1-2.5-2.1-4.5-4.6-4.5h-8.1c-2.3,0-4.2,1.8-4.5,4
			c0.2-2.3,2.1-4.1,4.5-4.1h8.1C-190.3,418.1-188.3,420.1-188.3,422.6z"/>
		<path class="st1" d="M-188.4,422.6v5.8h-1.5v-3.6c0-1-0.7-1.8-1.7-2c-0.1,0-0.3,0-0.4,0h-9.7c-0.1,0-0.3,0-0.4,0
			c-1,0.2-1.7,1-1.7,2v3.6h-1.7v-5.8c0-0.2,0-0.3,0-0.5c0.2-2.3,2.1-4,4.5-4h8.1C-190.4,418.1-188.4,420.1-188.4,422.6z"/>
		<path class="st1" d="M-190,412v2.3c0,1.4-1.1,2.5-2.5,2.5h-8.6c-0.7,0-1.4-0.3-1.8-0.8c0.4,0.4,1.1,0.7,1.7,0.7h8.6
			c1.4,0,2.5-1.1,2.5-2.5v-2.3c0-0.5-0.1-1-0.4-1.4C-190.2,410.9-190,411.4-190,412z"/>
		<path class="st1" d="M-190.1,411.9v2.3c0,1.4-1.1,2.5-2.5,2.5h-8.6c-0.7,0-1.3-0.3-1.7-0.7c0,0-0.1-0.1-0.1-0.1
			c-0.4-0.4-0.6-1-0.6-1.6V412c0-1.4,1.1-2.5,2.5-2.5h6.8h1.8c0.8,0,1.5,0.4,2,1C-190.2,410.9-190.1,411.4-190.1,411.9z"/>
		<path class="st1" d="M-191.6,433c0.9-0.2,1.6-1,1.7-2C-189.9,432-190.6,432.8-191.6,433z"/>
		<path class="st1" d="M-195.5,399.1c0,0.1,0,0.1,0,0.2l1.1,10.1h-5l1.2-10.3c0-0.7,0.6-1.3,1.3-1.3
			C-196.2,397.9-195.6,398.4-195.5,399.1z"/>
		<path class="st1" d="M-202.1,422.8c-0.9,0.2-1.6,1-1.7,2C-203.8,423.8-203.1,423-202.1,422.8z"/>
		<path class="st1" d="M-208.7,428.5v10.6c0,2.5-2,4.5-4.5,4.5h-8.1c-2.5,0-4.5-2-4.5-4.5v-10.7h1.6v2.6c0,1.1,0.9,1.9,2,2
			c0,0,0.1,0,0.1,0h9.7c0.1,0,0.1,0,0.2,0c1-0.1,1.9-0.9,2-2c-0.1,0.1-0.1-2-0.1-2.5H-208.7z"/>
		<rect x="-210.3" y="428.4" class="st1" width="1.6" height="0.1"/>
		<path class="st1" d="M-208.7,422.6v5.8h-1.6v-3.6c0-1-0.7-1.8-1.7-2c-0.1,0-0.3,0-0.4,0h-9.7c-0.1,0-0.3,0-0.4,0
			c-1,0.2-1.7,1-1.7,2v3.6h-1.6v-5.8c0-2.5,2-4.5,4.5-4.5h8.1C-210.7,418.1-208.7,420.1-208.7,422.6z"/>
		<path class="st1" d="M-210.4,412v2.3c0,1.4-1.1,2.5-2.5,2.5h-8.6c-0.7,0-1.4-0.3-1.8-0.8c0.4,0.4,1.1,0.7,1.7,0.7h8.6
			c1.4,0,2.5-1.1,2.5-2.5v-2.3c0-0.6-0.2-1.2-0.6-1.6C-210.6,410.7-210.4,411.3-210.4,412z"/>
		<path class="st1" d="M-210.5,411.9v2.3c0,1.4-1.1,2.5-2.5,2.5h-8.6c-0.7,0-1.3-0.3-1.7-0.7c0,0-0.1-0.1-0.1-0.1
			c-0.3-0.4-0.6-1-0.6-1.6V412c0-1.4,1.1-2.5,2.5-2.5h6.8h1.8c0.7,0,1.3,0.3,1.7,0.7c0,0,0.1,0.1,0.1,0.1
			C-210.7,410.7-210.5,411.3-210.5,411.9z"/>
		<path class="st1" d="M-213.2,418L-213.2,418l-8.1,0.1c-2.5,0-4.5,2-4.5,4.5v5.8h-0.1v-5.9c0-2.5,2-4.5,4.5-4.5H-213.2z"/>
		<path class="st1" d="M-219.8,409.4l1.2-10.3c0.1-0.7,0.7-1.2,1.4-1.3c0.8,0.1,1.3,0.7,1.3,1.5l1.1,10.1H-219.8z"/>
		<path class="st1" d="M-224.1,431c0,1,0.8,1.9,1.9,2C-223.3,432.9-224.2,432.1-224.1,431l-0.1-2.6h0.1V431z"/>
		<path class="st1" d="M-222.5,422.8c-0.9,0.2-1.6,1-1.7,2C-224.2,423.8-223.5,423-222.5,422.8z"/>
		<path class="st1" d="M-228.8,439.3c0,0.2,0,0.3,0,0.5c-0.2,2.3-2.1,4-4.5,4h-8.2c-1.6,0.1-3-0.8-3.8-2c-0.1-0.2-0.3-0.5-0.4-0.8
			c-0.1-0.2-0.1-0.3-0.2-0.5c0-0.1-0.1-0.2-0.1-0.3c-0.1-0.3-0.1-0.6-0.1-0.9v-10.7h1.7v2.6c0,0.1,0,0.1,0,0.2c0,1.1,0.9,2,2.1,1.9
			h9.7c1.1,0,2-0.9,2.1-2v-2.6h1.6V439.3z"/>
		<path class="st1" d="M-228.9,422.7v5.9h-1.6V425c0-0.1,0-0.3,0-0.4c-0.2-1-1-1.7-2-1.7h-9.7c-1.1,0-2,0.9-2.1,1.9
			c0,0.1,0,0.1,0,0.2v3.6h-1.7v-5.9c0-2.5,2-4.5,4.5-4.5h8.1C-230.9,418.2-228.9,420.2-228.9,422.7z"/>
		<path class="st1" d="M-233.3,443.8c2.3,0,4.2-1.8,4.5-4c-0.2,2.3-2.1,4.1-4.5,4.1h-8.2c-1.6,0-3-0.9-3.8-2.1
			c0.8,1.2,2.2,2.1,3.8,2H-233.3z"/>
		<path class="st1" d="M-230.6,412.1v2.3c0,1.4-1.1,2.5-2.5,2.5h-8.6c-1.4,0-2.5-1.1-2.5-2.5v-2.2c0-1.4,1.1-2.5,2.5-2.5h6.8
			l1.8-0.1C-231.7,409.6-230.6,410.7-230.6,412.1z"/>
		<path class="st1" d="M-232.5,422.9c1,0,1.8,0.7,2,1.7c-0.2-0.9-1-1.6-2.1-1.6h-9.6c-1,0-2,0.8-2.1,1.8c0.1-1,1-1.9,2.1-1.9H-232.5
			z"/>
		<path class="st1" d="M-236,399.5l1.1,10.1h-5l1.2-10.3c0.1-0.4,0.2-0.7,0.5-0.9c0.2-0.2,0.6-0.4,0.9-0.4
			C-236.6,398.1-236,398.7-236,399.5z"/>
		<path class="st1" d="M-245.7,441c0.1,0.3,0.2,0.5,0.4,0.8C-245.4,441.6-245.6,441.3-245.7,441z"/>
		<path class="st1" d="M-245.9,440.2c0,0.1,0,0.2,0.1,0.3C-245.9,440.4-245.9,440.3-245.9,440.2z"/>
	</g>
	<g>
		<path class="st2" d="M-165.2,439.6c0-0.1,0-0.2,0-0.4"/>
		<path class="st2" d="M-165.3,428.4v-5.8c0-2.5,2.1-4.5,4.6-4.5h8.1c2.5,0,4.5,2,4.5,4.5v5.8v0.1v10.6c0,0.2,0,0.3,0,0.5
			c-0.2,2.3-2.1,4-4.5,4h-8.1c-2.3,0-4.3-1.8-4.6-4c0-0.1,0-0.2,0-0.4c0,0,0-0.1,0-0.1V428.4z"/>
		<path class="st2" d="M-157.9,399.5c0-0.1,0-0.2,0-0.3c0,0,0-0.1,0-0.1c0.1-0.7,0.6-1.2,1.3-1.2c0.7,0.1,1.1,0.5,1.2,1.1
			c0,0.1,0.1,0.2,0.1,0.4v0.2"/>
		<path class="st2" d="M-154.1,409.4h1.8c1.4,0,2.5,1.1,2.5,2.5v2.3c0,1.4-1.1,2.5-2.5,2.5h-8.7c-1.4,0-2.5-1.1-2.5-2.5V412
			c0-1.4,1.1-2.5,2.5-2.5l1.9,0L-154.1,409.4z"/>
		<polyline class="st2" points="-157.9,399 -157.9,399.1 -159.1,409.4 		"/>
		<polyline class="st2" points="-155.3,399 -155.2,399.3 -154.1,409.4 		"/>
		<path class="st2" d="M-163.6,428.4v-3.6c0-1.1,0.9-2,2.1-2h9.7c1.1,0,2,0.9,2.1,2v3.6v0.1v2.5c0,0.1,0,0.1,0,0.2
			c-0.1,0.9-0.9,1.8-1.9,1.9c-0.1,0-0.1,0-0.2,0h-9.7c0,0-0.1,0-0.1,0c-1.1,0-2-0.9-2-2.1V428.4z"/>
		<path class="st2" d="M-198.1,399.5c0-0.1,0-0.2,0-0.3c0-0.7,0.6-1.3,1.3-1.3c0.7,0.1,1.2,0.6,1.3,1.2c0,0.1,0,0.2,0,0.3v0.2"/>
		<path class="st2" d="M-188.3,428.4v0.1v10.6c0,2.5-2,4.5-4.5,4.5h-8.2c-2.5,0-4.5-2-4.5-4.5v-10.7v-5.8c0-0.2,0-0.3,0-0.5
			c0.2-2.3,2.1-4,4.5-4h8.1c2.5,0,4.5,2,4.5,4.5L-188.3,428.4L-188.3,428.4z"/>
		<path class="st2" d="M-194.4,409.4h1.8c0.9,0,1.7,0.4,2.1,1.1c0.2,0.4,0.4,0.9,0.4,1.4v2.3c0,1.4-1.1,2.5-2.5,2.5h-8.6
			c-0.7,0-1.3-0.3-1.7-0.7c0,0-0.1-0.1-0.1-0.1c-0.4-0.4-0.7-1-0.7-1.7v-2.3c0-1.4,1.1-2.5,2.5-2.5h1.8H-194.4z"/>
		<polyline class="st2" points="-198.1,399 -198.1,399.1 -199.4,409.4 		"/>
		<polyline class="st2" points="-195.5,399 -195.5,399.3 -194.4,409.4 		"/>
		<path class="st2" d="M-189.9,428.4v0.1v2.5c0,1-0.7,1.8-1.7,2c-0.1,0-0.3,0-0.4,0h-9.7c-0.1,0-0.3,0-0.4,0
			c-0.8-0.2-1.6-0.9-1.7-1.8c0-0.1,0-0.1,0-0.2v-2.6v-3.6c0-1,0.7-1.8,1.7-2c0.1,0,0.3,0,0.4,0h9.7c0.1,0,0.3,0,0.4,0
			c0.9,0.2,1.6,1,1.7,2V428.4z"/>
		<path class="st2" d="M-238.6,399.6c0-0.1,0-0.2,0-0.3c0-0.4,0.2-0.6,0.4-0.9c0.2-0.2,0.6-0.4,0.9-0.4c0.7,0.1,1.3,0.7,1.3,1.5v0.2
			"/>
		<path class="st2" d="M-228.9,422.7l0.1,5.9v0.1v10.6c0,0.2,0,0.3,0,0.5c-0.2,2.3-2.1,4-4.5,4h-8.2c-1.6,0.1-3-0.8-3.8-2
			c-0.1-0.2-0.3-0.5-0.4-0.8c-0.1-0.2-0.1-0.3-0.2-0.5c0-0.1-0.1-0.2-0.1-0.3c-0.1-0.3-0.1-0.6-0.1-0.9v-10.7v-5.9
			c0-2.5,2-4.5,4.5-4.5h8.1C-230.9,418.2-228.9,420.2-228.9,422.7z"/>
		<path class="st2" d="M-234.9,409.6h1.8c1.4,0,2.5,1.1,2.5,2.5v2.3c0,1.4-1.1,2.5-2.5,2.5h-8.6c-1.4,0-2.5-1.1-2.5-2.5v-2.2
			c0-1.4,1.1-2.5,2.5-2.5L-234.9,409.6z"/>
		<polyline class="st2" points="-238.6,399.2 -238.7,399.3 -239.9,409.6 		"/>
		<polyline class="st2" points="-236,399.2 -236,399.5 -234.9,409.6 		"/>
		<path class="st2" d="M-230.5,428.6v2.6c0,1.1-0.9,2-2.1,2h-9.6c-1,0-2-0.8-2.1-1.8c0-0.1,0-0.1,0-0.2v-2.6V425c0-0.1,0-0.1,0-0.2
			c0.1-1,1-1.9,2.1-1.9h9.7c1,0,1.8,0.7,2,1.7c0,0.1,0,0.3,0,0.4V428.6z"/>
		<path class="st2" d="M-218.5,399.5c0-0.1,0-0.2,0-0.3c0-0.7,0.6-1.3,1.3-1.3c0.8,0.1,1.3,0.7,1.3,1.5v0.2"/>
		<path class="st2" d="M-208.7,428.4v0.1v10.6c0,2.5-2,4.5-4.5,4.5h-8.1c-2.5,0-4.5-2-4.5-4.5v-10.7v-5.8c0-2.5,2-4.5,4.5-4.5h8.1
			c2.5,0,4.5,2,4.5,4.5V428.4z"/>
		<path class="st2" d="M-214.8,409.4h1.8c0.7,0,1.4,0.3,1.8,0.8c0,0,0.1,0.1,0.1,0.1c0.3,0.4,0.6,1,0.6,1.6v2.3
			c0,1.4-1.1,2.5-2.5,2.5h-8.6c-0.7,0-1.3-0.3-1.7-0.7c0,0-0.1-0.1-0.1-0.1c-0.4-0.4-0.7-1-0.7-1.7v-2.3c0-1.4,1.1-2.5,2.5-2.5h1.8
			H-214.8z"/>
		<polyline class="st2" points="-218.5,399 -218.5,399.1 -219.8,409.4 		"/>
		<polyline class="st2" points="-215.9,399 -215.9,399.3 -214.8,409.4 		"/>
		<path class="st2" d="M-210.3,428.4v0.1v2.5c0,1-0.8,1.9-1.9,2c-0.1,0-0.1,0-0.2,0h-9.7c0,0-0.1,0-0.1,0c-1.1,0-2-0.9-2-2v-2.6
			v-3.6c0-1,0.7-1.8,1.7-2c0.1,0,0.3,0,0.4,0h9.7c0.1,0,0.3,0,0.4,0c0.9,0.2,1.6,1,1.7,2V428.4z"/>
		<path class="st2" d="M-168.1,428.5v10.7c0,2.5-2,4.5-4.5,4.5h-8.1c-2.5,0-4.5-2-4.5-4.5v-10.7v-5.8c0-2.5,2-4.5,4.5-4.5h8.1
			c2.5,0,4.5,2,4.5,4.5V428.5z"/>
		<path class="st2" d="M-177.9,399.6c0-0.1,0-0.2,0-0.3v-0.1c0.1-0.6,0.6-1.1,1.3-1.2c0.8,0.1,1.3,0.7,1.3,1.5v0.2"/>
		<path class="st2" d="M-174.1,409.5h1.8c1.4,0,2.5,1.1,2.5,2.5v2.3c0,1.4-1.1,2.5-2.5,2.5h-8.6c-1.4,0-2.5-1.1-2.5-2.5v-2.2
			c0-1.4,1.1-2.5,2.5-2.5l1.8,0L-174.1,409.5z"/>
		<polyline class="st2" points="-177.9,399.1 -177.9,399.2 -179.1,409.5 		"/>
		<polyline class="st2" points="-175.3,399.1 -175.3,399.4 -175.3,399.5 -174.1,409.5 		"/>
		<path class="st2" d="M-170.2,428.5v2.4c0,1-0.8,1.9-1.9,1.9h-9c-1,0-1.9-0.8-1.9-1.9V425c0-1,0.7-1.9,1.8-1.9h0.1h9
			c1,0,1.9,0.8,1.9,1.9L-170.2,428.5L-170.2,428.5z"/>
	</g>
</g>
</svg>
