<svg id="Layer_1" data-name="Layer 1" xmlns="http://www.w3.org/2000/svg" viewBox="0 0 87.58 91.78"><defs><style>.cls-1{fill:#404243;}.cls-2,.cls-3,.cls-4{fill:none;stroke:#fff;}.cls-2,.cls-3{stroke-miterlimit:10;}.cls-2{stroke-width:2px;}.cls-4{stroke-linecap:round;stroke-linejoin:round;}</style></defs><title>settings</title><path class="cls-1" d="M228.7,204.73l16.43,11.7-9.4-16.84c-2.11-.18-4.31-1.88-5.53-4.48-1.62-3.48-.85-7.26,1.72-8.46s6,0.65,7.58,4.13a7.68,7.68,0,0,1,.27,6.42l13.43,24.56,18,13.91,6.43-.89c0-6.2,5.29-11.22,11.82-11.22s11.82,5,11.82,11.22S295.94,246,289.41,246a11.85,11.85,0,0,1-10.88-6.83l-8.72,1-10.21-6.51,7.29,11.22-2.2,7.77a12.43,12.43,0,0,1,6.47,11.08c0,6.81-5.17,12.34-11.56,12.34S248,270.53,248,263.71s5.17-12.34,11.56-12.34l1-5.39-9.87-19.52-24.45-18.05a7.14,7.14,0,0,1-6.85-.41c-3.28-1.89-4.7-5.55-3.18-8.18s5.41-3.23,8.68-1.34A7,7,0,0,1,228.7,204.73ZM289.41,242a7.27,7.27,0,1,0-7.65-7.26A7.46,7.46,0,0,0,289.41,242Zm-23.19,21.69c0-4.17-3-7.56-6.62-7.56s-6.62,3.39-6.62,7.56,3,7.56,6.62,7.56S266.22,267.88,266.22,263.71Zm-30.37-68.19c1-.42,1.35-1.88.8-3.24s-1.83-2.18-2.83-1.77-1.36,1.85-.8,3.24S234.86,195.94,235.86,195.52Z" transform="translate(-214.65 -185.27)"/><ellipse class="cls-1" cx="74.76" cy="49.49" rx="7.65" ry="7.26"/><ellipse class="cls-1" cx="44.96" cy="78.44" rx="6.62" ry="7.56"/><path class="cls-1" d="M236.65,192.28c0.55,1.36.2,2.82-.8,3.24s-2.27-.39-2.83-1.77-0.2-2.84.8-3.24S236.1,190.9,236.65,192.28Z" transform="translate(-214.65 -185.27)"/><path class="cls-2" d="M228.7,204.73a1,1,0,0,1,0,.11" transform="translate(-214.65 -185.27)"/><path class="cls-2" d="M228.7,204.73l16.43,11.7-9.4-16.84c-2.11-.18-4.31-1.88-5.53-4.48-1.62-3.48-.85-7.26,1.72-8.46s6,0.65,7.58,4.13a7.68,7.68,0,0,1,.27,6.42l13.43,24.56,18,13.91,6.43-.89c0-6.2,5.29-11.22,11.82-11.22s11.82,5,11.82,11.22S295.94,246,289.41,246a11.85,11.85,0,0,1-10.88-6.83l-8.72,1-10.21-6.51,7.29,11.22-2.2,7.77a12.43,12.43,0,0,1,6.47,11.08c0,6.81-5.17,12.34-11.56,12.34S248,270.53,248,263.71s5.17-12.34,11.56-12.34l1-5.39-9.87-19.52-24.45-18.05a7.14,7.14,0,0,1-6.85-.41c-3.28-1.89-4.7-5.55-3.18-8.18s5.41-3.23,8.68-1.34A7,7,0,0,1,228.7,204.73Z" transform="translate(-214.65 -185.27)"/><line class="cls-2" x1="14.05" y1="19.45" x2="14.05" y2="19.45"/><path class="cls-3" d="M236.65,192.28c0.55,1.36.2,2.82-.8,3.24s-2.27-.39-2.83-1.77-0.2-2.84.8-3.24S236.1,190.9,236.65,192.28Z" transform="translate(-214.65 -185.27)"/><ellipse class="cls-2" cx="44.96" cy="78.44" rx="6.62" ry="7.56"/><ellipse class="cls-2" cx="74.76" cy="49.49" rx="7.65" ry="7.26"/><path class="cls-4" d="M219.53,202.3c0.39-1,1.83-1.4,3.23-.86" transform="translate(-214.65 -185.27)"/><path class="cls-4" d="M221.36,205.09c-1.39-.53-2.21-1.79-1.82-2.8" transform="translate(-214.65 -185.27)"/><path class="cls-4" d="M224.58,204.23c-0.37,1-1.83,1.39-3.23.86" transform="translate(-214.65 -185.27)"/><path class="cls-4" d="M222.76,201.44c1.37,0.53,2.2,1.78,1.82,2.8" transform="translate(-214.65 -185.27)"/></svg>