<svg id="Layer_1" data-name="Layer 1" xmlns="http://www.w3.org/2000/svg" viewBox="0 0 93.41 94.99"><defs><style>.cls-1{fill:#414243;}.cls-2{fill:none;}.cls-2,.cls-3,.cls-4{stroke:#e4e1e1;stroke-linecap:round;stroke-width:2px;}.cls-2,.cls-4{stroke-linejoin:round;}.cls-3,.cls-4,.cls-5{fill:#e4e1e1;}.cls-3{stroke-miterlimit:10;}.cls-5{font-size:12px;font-family:Lato;}</style></defs><title>tattoo shop</title><path class="cls-1" d="M522.51,435.23l3.73,18.61a4.79,4.79,0,0,1-4.78,4.78H439.61a4.79,4.79,0,0,1-4.78-4.78l4.47-19.55c1-3,4.19-3,6.81-3h72C520,431.33,522.51,433.3,522.51,435.23Z" transform="translate(-433.83 -426.46)"/><path class="cls-1" d="M511.71,493.7V483a11.5,11.5,0,0,0-11.47-11.47h-5.72A11.5,11.5,0,0,0,483.05,483V493.7a11.5,11.5,0,0,0,11.47,11.47h5.72A11.5,11.5,0,0,0,511.71,493.7Zm-5.94,26.75h-52a13.64,13.64,0,0,1-13.6-13.6V475.66a13.64,13.64,0,0,1,13.6-13.6h53.09a13.64,13.64,0,0,1,13.6,13.6v30.09A14.74,14.74,0,0,1,505.77,520.45Zm-27.4-26.75V483a11.5,11.5,0,0,0-11.47-11.47h-5.72A11.5,11.5,0,0,0,449.71,483V493.7a11.5,11.5,0,0,0,11.47,11.47h5.72A11.5,11.5,0,0,0,478.37,493.7Z" transform="translate(-433.83 -426.46)"/><rect class="cls-1" x="49.22" y="45.11" width="28.66" height="33.61" rx="11.47" ry="11.47"/><rect class="cls-1" x="15.88" y="45.11" width="28.66" height="33.61" rx="11.47" ry="11.47"/><path class="cls-2" d="M521.46,458.63H439.61a4.79,4.79,0,0,1-4.78-4.78l4.47-19.55c1-3,4.19-3,6.81-3h72c1.94,0,4.41,2,4.41,3.9l3.73,18.61A4.79,4.79,0,0,1,521.46,458.63Z" transform="translate(-433.83 -426.46)"/><path class="cls-2" d="M505.77,520.45h-52a13.64,13.64,0,0,1-13.6-13.6V475.66a13.64,13.64,0,0,1,13.6-13.6h53.09a13.64,13.64,0,0,1,13.6,13.6v30.09A14.74,14.74,0,0,1,505.77,520.45Z" transform="translate(-433.83 -426.46)"/><rect class="cls-2" x="15.88" y="45.11" width="28.66" height="33.61" rx="11.47" ry="11.47"/><rect class="cls-2" x="49.22" y="45.11" width="28.66" height="33.61" rx="11.47" ry="11.47"/><path class="cls-3" d="M508.88,495.55" transform="translate(-433.83 -426.46)"/><path class="cls-3" d="M503.82,500.61" transform="translate(-433.83 -426.46)"/><path class="cls-4" d="M501.52,502.74" transform="translate(-433.83 -426.46)"/><path class="cls-4" d="M509.32,494.94" transform="translate(-433.83 -426.46)"/><line class="cls-2" x1="24.99" y1="48.45" x2="19.35" y2="55.37"/><line class="cls-2" x1="74.45" y1="69.09" x2="68.8" y2="76.01"/><line class="cls-2" x1="24.99" y1="48.45" x2="19.35" y2="55.37"/><line class="cls-2" x1="30.4" y1="49.29" x2="21.25" y2="60.5"/><line class="cls-2" x1="73.26" y1="63.49" x2="64.11" y2="74.7"/><text class="cls-5" transform="translate(22.17 22.54)">TA<tspan x="14.14" y="0">T</tspan><tspan x="21.44" y="0">T</tspan><tspan x="28.55" y="0">OO</tspan></text><text x="-433.83" y="-426.46"/></svg>