<svg id="Layer_1" data-name="Layer 1" xmlns="http://www.w3.org/2000/svg" viewBox="0 0 461.62 142.2"><defs><style>.cls-1{fill:#fff;}</style></defs><title>white logo</title><path class="cls-1" d="M99.74,197.34Q96,192.61,96,184.14a54.3,54.3,0,0,1,2.24-15.19,146.14,146.14,0,0,1,5-14.44q2.74-6.72,5.1-12a41.18,41.18,0,0,0,2.86-7.72c-0.17.33,0.37,0.75,1.62,1.24a22.9,22.9,0,0,1,4.11,2.24,20.39,20.39,0,0,1,4.23,3.86,9.16,9.16,0,0,1,2,6.1q0,2.74-2.49,6.47h-0.25q-4.24,8-8.59,16.93a38.84,38.84,0,0,0-4.36,16.93,11.46,11.46,0,0,0,.75,4.48q0.75,1.74,3.49,1.74,4.23,0,10.46-5.1t11.21-16.56l0.5-.25a2.39,2.39,0,0,1,1.74.75l0.5,0.5q0-.25-1.12,4.11a41.59,41.59,0,0,1-4.11,9.71,37.33,37.33,0,0,1-8.09,9.84,18.74,18.74,0,0,1-12.87,4.56,15.34,15.34,0,0,1-5.23-1A11,11,0,0,1,99.74,197.34Zm32.87-70a10.88,10.88,0,0,1-3.73,4.48,9,9,0,0,1-5.23,1.74,5.34,5.34,0,0,1-5-2.49,10.9,10.9,0,0,1-1.49-5.73,9,9,0,0,1,2.37-6.47,8.27,8.27,0,0,1,11.58-.25,7.45,7.45,0,0,1,2.24,5.48,7.13,7.13,0,0,1-.75,3.24h0Z" transform="translate(-96.01 -98)"/><path class="cls-1" d="M166.71,197.34q-3.49-5-3.49-13.2a57.09,57.09,0,0,1,1.87-14.07A139,139,0,0,1,169.45,156l-4.86,9.21q-2.62,5-5.1,10t-4.73,9.71q-2.24,4.71-4,8a52,52,0,0,1-2.61,4.73,16.7,16.7,0,0,1-2.74,3.24,6.44,6.44,0,0,1-3.61,1.74q-6,.5-8-4.36a32.76,32.76,0,0,1-2-12.33A66.42,66.42,0,0,1,134,169.13a137.4,137.4,0,0,1,5-15.56,88.6,88.6,0,0,1,5.23-11.33q2.49-4.35,3-4.36a12.22,12.22,0,0,1,4.11.87,49.08,49.08,0,0,1,4.86,2.12,63.92,63.92,0,0,1,5.73,3q-2,4.24-5.1,9.46t-6.1,11.21A103.61,103.61,0,0,0,145.54,177a38.69,38.69,0,0,0-2.24,12.7q8.22-14.69,14.19-24.15t10.09-15.2q4.11-5.72,6.72-8.71t4.23-5a16.17,16.17,0,0,0,2.37-3.73,30.07,30.07,0,0,0,1.49-5.23,10.37,10.37,0,0,1,2.12,1.12,23.26,23.26,0,0,1,3.86,3,43.1,43.1,0,0,1,3.73,4,6.82,6.82,0,0,1,1.74,4.36,17.91,17.91,0,0,1-.37,2.74,5.58,5.58,0,0,1-1.37,3q-2,4.24-5,9.46t-5.73,11a110.77,110.77,0,0,0-4.73,11.45,32.65,32.65,0,0,0-2,10.71,14.66,14.66,0,0,0,.62,4.61,2.69,2.69,0,0,0,2.86,1.87q3.23,0,8.59-5.1T197,173.33l0.5-.25a2.15,2.15,0,0,1,1.49.75l0.5,0.5a34.74,34.74,0,0,1-1.62,4.86,66,66,0,0,1-4.61,9.59,42.66,42.66,0,0,1-7.35,9.46,13.76,13.76,0,0,1-9.79,4.1,12.79,12.79,0,0,1-4.73-1A11.45,11.45,0,0,1,166.71,197.34Z" transform="translate(-96.01 -98)"/><path class="cls-1" d="M252.62,137.84q1.49,1,1.49,1.49l-0.25.25a100.14,100.14,0,0,0-10.08,10q-5.85,6.48-11.58,13.94a99.9,99.9,0,0,0,2.49,14.94q1.74,7,3.49,12.08t3.11,8.09a23.83,23.83,0,0,0,1.62,3.24l-1.75,1.21q-2-.25-4.73-2.74a50.7,50.7,0,0,1-5.6-6.1q-2.87-3.61-5.48-7.59a73.47,73.47,0,0,1-4.36-7.47q-3.73,5.73-6.35,10.21a47.74,47.74,0,0,0-3.61,7.22c0-.16-0.17,0-0.5.62a17.7,17.7,0,0,1-1.37,2,11.09,11.09,0,0,1-2.24,2.12,5.18,5.18,0,0,1-3.11,1q-1,0-2.61-.12a5.91,5.91,0,0,1-3.11-1.25,9.12,9.12,0,0,1-2.61-3.49,17.28,17.28,0,0,1-1.12-7.1A75.19,75.19,0,0,1,196.6,174q2.24-9.71,5.48-19.8t6.72-19.42q3.48-9.34,6-15.56,2-5,4.23-10.33A36.55,36.55,0,0,0,221.77,98q0.5,0.25,2.74,1.12a31.69,31.69,0,0,1,4.73,2.37,21.09,21.09,0,0,1,4.48,3.61,7.19,7.19,0,0,1,2,5.1,14.27,14.27,0,0,1-1.25,6l-3.86,7.72Q228,129.17,224.76,136t-6.6,14.4q-3.36,7.6-6.23,14.82t-4.77,13.56a38.94,38.94,0,0,0-1.85,10.54A155.07,155.07,0,0,1,221,165.93a182.22,182.22,0,0,1,14.94-16.31A146.17,146.17,0,0,1,251.38,137,12.93,12.93,0,0,1,252.62,137.84Z" transform="translate(-96.01 -98)"/><path class="cls-1" d="M258.84,239.93a10.61,10.61,0,0,1-2.49.25,12,12,0,0,1-7-1.74,11.41,11.41,0,0,1-3.73-4.23,14.78,14.78,0,0,1-1.49-5.35q-0.24-2.87-.25-5.1A88.22,88.22,0,0,1,246,205.58q2.12-10,5.1-19.92t6.23-19.17q3.23-9.21,5.48-15.94-4.73-8-7.1-11.58t-2.37-4.36a1.08,1.08,0,0,1,.5-0.87,1.66,1.66,0,0,1,1-.37q3,0.5,6.47.87t7,0.87q3.23-8.22,5.23-13.45t4-10.21l1.74-5.23q0.75-2.24,1.37-4.48a14.6,14.6,0,0,0,.62-3.73q0.5,0.25,2.74,1.12a31.66,31.66,0,0,1,4.73,2.37,21.08,21.08,0,0,1,4.48,3.61,6.89,6.89,0,0,1,2,4.86,16.24,16.24,0,0,1-1.12,5.35q-1.12,3.12-2.74,6.6t-3.49,7.35q-1.87,3.86-3.36,7.59,8.46,0.75,11.33,1.12c1.91,0.25,2.86.54,2.86,0.87q0,0.75-4.61.87t-11.08.37q-2.24,5-4.36,10.08T274.29,161q1.74,3.49,4.11,7.84a89.28,89.28,0,0,1,4.36,9.34A76,76,0,0,1,286.12,189a55.25,55.25,0,0,1,1.37,12.57A37.75,37.75,0,0,1,284,218.39a43.61,43.61,0,0,1-8.09,11.7,38.22,38.22,0,0,1-9.46,7.1A23,23,0,0,1,258.84,239.93Zm-2.24-21.66c-0.17,1-.29,2-0.37,3.11s-0.12,2.2-.12,3.36a10.73,10.73,0,0,0,.62,3.86,2.51,2.51,0,0,0,2.61,1.62,12.88,12.88,0,0,0,9.09-3.61,31.48,31.48,0,0,0,6.47-8.71,45.19,45.19,0,0,0,3.86-10.56,43,43,0,0,0,1.25-9.21,51.25,51.25,0,0,0-2.61-16.31,139.8,139.8,0,0,0-5.6-14.32q-4.73,12-9,25A167.89,167.89,0,0,0,256.6,218.27Zm5-76.69q0.75,1,1.49,1.87a15.8,15.8,0,0,1,1.49,2.12,24.27,24.27,0,0,0,.87-2.61,23.89,23.89,0,0,1,.87-2.61h-3.61c-1.08,0-1.62.17-1.62,0.5a1.37,1.37,0,0,0,.49.73h0Z" transform="translate(-96.01 -98)"/><path class="cls-1" d="M326.06,197.34q-3.49-5-3.49-13.2a57.09,57.09,0,0,1,1.87-14.07A139,139,0,0,1,328.8,156l-4.86,9.21q-2.62,5-5.1,10t-4.73,9.71q-2.24,4.71-4,8a52,52,0,0,1-2.61,4.73,16.7,16.7,0,0,1-2.74,3.24,6.44,6.44,0,0,1-3.61,1.74q-6,.5-8-4.36a32.76,32.76,0,0,1-2-12.33,66.42,66.42,0,0,1,2.24-16.81,137.39,137.39,0,0,1,5-15.56,88.6,88.6,0,0,1,5.23-11.33q2.49-4.35,3-4.36a12.22,12.22,0,0,1,4.11.87,49.08,49.08,0,0,1,4.86,2.12,63.93,63.93,0,0,1,5.73,3q-2,4.24-5.1,9.46t-6.1,11.21A103.6,103.6,0,0,0,304.89,177a38.69,38.69,0,0,0-2.24,12.7q8.22-14.69,14.19-24.15t10.1-15.2q4.11-5.72,6.72-8.71t4.23-5a16.17,16.17,0,0,0,2.37-3.73,30.07,30.07,0,0,0,1.49-5.23,10.37,10.37,0,0,1,2.12,1.12,23.26,23.26,0,0,1,3.86,3,43.09,43.09,0,0,1,3.73,4,6.82,6.82,0,0,1,1.74,4.36,17.91,17.91,0,0,1-.37,2.74,5.58,5.58,0,0,1-1.37,3q-2,4.24-5,9.46t-5.73,11A110.76,110.76,0,0,0,336,177.8a32.65,32.65,0,0,0-2,10.71,14.66,14.66,0,0,0,.62,4.61,2.69,2.69,0,0,0,2.86,1.87q3.23,0,8.59-5.1t10.33-16.56l0.5-.25a2.15,2.15,0,0,1,1.49.75l0.5,0.5a34.75,34.75,0,0,1-1.62,4.86,66,66,0,0,1-4.61,9.59,42.66,42.66,0,0,1-7.35,9.46,13.76,13.76,0,0,1-9.84,4.23,12.79,12.79,0,0,1-4.73-1A11.45,11.45,0,0,1,326.06,197.34Z" transform="translate(-96.01 -98)"/><path class="cls-1" d="M423.42,190.63q-1,1.49-2.61,3.49a25.35,25.35,0,0,1-4,3.86,22.63,22.63,0,0,1-5.35,3.11,17.36,17.36,0,0,1-6.72,1.25,17.58,17.58,0,0,1-6.6-1.62,8.79,8.79,0,0,1-5.1-6.35,50.38,50.38,0,0,1-6.72,5.23,19.35,19.35,0,0,1-11.21,3.24,15.66,15.66,0,0,1-9.21-2.61,20.72,20.72,0,0,1-6-6.35,27.49,27.49,0,0,1-3.24-8.09,36.59,36.59,0,0,1-1-8.09,41.87,41.87,0,0,1,2.5-13.36,51.13,51.13,0,0,1,7.22-13.82,43.12,43.12,0,0,1,11.45-10.83,26.91,26.91,0,0,1,14.94-4.36,29.35,29.35,0,0,1,6.85.75,21.27,21.27,0,0,1,5.35,2q3.74-9.46,6.6-16.31t4.36-10.33l1.74-5.23q0.75-2.24,1.37-4.48a14.6,14.6,0,0,0,.62-3.73q0.5,0.25,2.74,1.12a31.66,31.66,0,0,1,4.73,2.37,21.09,21.09,0,0,1,4.48,3.61,6.89,6.89,0,0,1,2,4.86,17.07,17.07,0,0,1-.25,2.74,19.2,19.2,0,0,1-1,3.49q-1.75,4-6.47,13.57T415,150.55q-5.11,11.21-9,22t-3.86,17.06q0,5.23,4.23,5.23t10.46-5.1q6.22-5.1,11.21-16.56l0.5-.25a2.39,2.39,0,0,1,1.74.75l0.5,0.5a29.06,29.06,0,0,1-1.62,5.73A43.77,43.77,0,0,1,423.42,190.63ZM392,189.88a55.18,55.18,0,0,1,1.25-16.68,162.66,162.66,0,0,1,5.48-19.92,15.33,15.33,0,0,0-7.84-3.24,16.69,16.69,0,0,0-9.59,2.24,37.55,37.55,0,0,0-11.58,11.83,31.2,31.2,0,0,0-5.35,16.31,12.71,12.71,0,0,0,1,8.72,14,14,0,0,0,5.48,5.73,15.78,15.78,0,0,0,7.47,2.12,9.17,9.17,0,0,0,6.72-2.37,34.34,34.34,0,0,0,4.11-2.37A20.67,20.67,0,0,0,392,189.88Z" transform="translate(-96.01 -98)"/><path class="cls-1" d="M485.16,173.2a2.83,2.83,0,0,1,1.24,1,37.36,37.36,0,0,1-1.62,5,53.84,53.84,0,0,1-4.73,9.59,47.39,47.39,0,0,1-7.47,9.34,13.76,13.76,0,0,1-9.84,4.23q-4.73,0-8.84-4.61t-4.11-13.57a56.38,56.38,0,0,1,2.12-14.94,127.18,127.18,0,0,1,4.86-14.44,40.07,40.07,0,0,1-5.35.62q-2.61.13-5.35,0.37H444.2a10.93,10.93,0,0,1-2.12-.25q-3.49,5.73-6.35,10.71l-4.86,8.47q-2.49,4.24-4.48,7.72a1.2,1.2,0,0,1-.62-0.25,1.23,1.23,0,0,0-.62-0.25l-0.5-.5q0.25-.75,1.49-3.73t2.86-7.22q1.62-4.23,3.49-9t3.36-8.71a13.9,13.9,0,0,1-5.73-6.6,18.85,18.85,0,0,1-1.49-6.6,12.7,12.7,0,0,1,.5-4.11c0.33-.91,1.16-1.37,2.49-1.37a30.48,30.48,0,0,1,3.11.25,44,44,0,0,1,4.36.75q2.25,0.5,4.23,1.12a7.12,7.12,0,0,1,2.49,1.12,19.08,19.08,0,0,1-1,2.12,6.15,6.15,0,0,1-.75.87q0,0.5,1.12.75c0.75,0.17,1.66.33,2.74,0.5s2.28,0.29,3.61.37,2.57,0.12,3.74.12h7c-0.17.33,0,0,.62-1s1.28-2.24,2.12-3.73a53.22,53.22,0,0,0,2.37-4.86,27.93,27.93,0,0,0,1.62-4.86,9,9,0,0,1,2,1.12,42.39,42.39,0,0,1,3.86,2.86,28.68,28.68,0,0,1,3.86,3.86,6.82,6.82,0,0,1,1.74,4.36,13.34,13.34,0,0,1-.12,1.87q-0.13.88-.37,2.12-2,4-5.11,9.46t-6.1,11.45a100.73,100.73,0,0,0-5.11,12.08,35.34,35.34,0,0,0-2.12,11.58,14.68,14.68,0,0,0,.62,4.61,2.52,2.52,0,0,0,2.62,1.87q3.48,0,8.71-5.1t10.21-16.56l0.5-.25A2.26,2.26,0,0,1,485.16,173.2Z" transform="translate(-96.01 -98)"/><path class="cls-1" d="M556.63,173.2a2.52,2.52,0,0,1,1,1q0-1.49-.87,2.61a49.13,49.13,0,0,1-3.49,9.84,34.76,34.76,0,0,1-7.84,10.71q-5.23,5-13.7,5a15,15,0,0,1-5.35-1,11.77,11.77,0,0,1-4.86-3.73,25.65,25.65,0,0,1-1.74,3.73,33.36,33.36,0,0,0-1.74,3.49l7.47,1.12q4.23,0.62,9,1a57.55,57.55,0,0,0,10-.12A40.06,40.06,0,0,0,555,204.36a17.08,17.08,0,0,1-1,5.6,18.08,18.08,0,0,1-3,5.35,18.54,18.54,0,0,1-4.86,4.23,14.37,14.37,0,0,1-6.6,2,45.63,45.63,0,0,1-14.44-1.12,125.88,125.88,0,0,1-12.95-4.36q-5,8.71-10.71,12.08a22.87,22.87,0,0,1-11.7,3.36c-0.67,0-1.83-.09-3.49-0.25a15.5,15.5,0,0,1-5.1-1.49,13.73,13.73,0,0,1-4.73-3.86q-2.11-2.61-2.12-7.35a11.67,11.67,0,0,1,2.49-7.72,17.36,17.36,0,0,1,5.85-4.61,23.28,23.28,0,0,1,6.6-2.12,34.44,34.44,0,0,1,4.73-.5,33.85,33.85,0,0,1,3.61.12,30.7,30.7,0,0,0,3.36.12q5,0,6-2.24t2.49-6a29.29,29.29,0,0,1-6.22,4.73,14.8,14.8,0,0,1-7.47,2q-4.48,0-8.71-4.61t-4.23-13.57A58.91,58.91,0,0,1,485,167.22a106,106,0,0,1,5.23-13.94q3-6.47,6.1-12.57a75.25,75.25,0,0,0,5.1-12.82,11.91,11.91,0,0,1,2.24,1.12,24.17,24.17,0,0,1,4,2.86,33.51,33.51,0,0,1,3.73,3.86,6.82,6.82,0,0,1,1.74,4.36,15.34,15.34,0,0,1-2.24,7.47q-2.24,4.24-5,9.34t-5.43,10.44a79.71,79.71,0,0,0-4.36,10.83,33.78,33.78,0,0,0-1.74,10.21,14.11,14.11,0,0,0,.87,5.35q0.87,2.12,3.86,2.12,4.23,0,10.21-6.47t11-22.41q4.44-14.93,8.84-22.63t4.86-11a11.11,11.11,0,0,1,2.12,1,24.88,24.88,0,0,1,4,2.74,33.45,33.45,0,0,1,3.86,3.73,6.36,6.36,0,0,1,1.74,4.23q-0.25,1.25-.62,3.24a14.2,14.2,0,0,1-1.62,4.23q-2.24,4-4.73,8.59T534,170.44a65.11,65.11,0,0,0-3.61,9.34,31,31,0,0,0-1.37,8.84,11.3,11.3,0,0,0,.75,4.61q0.75,1.62,3.49,1.62,4.23,0,10.58-5.1t11.28-16.55l0.5-.25A2.26,2.26,0,0,1,556.63,173.2ZM501.35,215a10,10,0,0,1,2.74-.25,8.82,8.82,0,0,1,1.49.12,7.91,7.91,0,0,0,1.25.12h1.25l-6.23-1.49q-2.74-.5-5.6-1.25a22.15,22.15,0,0,0-5.6-.75,16.8,16.8,0,0,0-7.84,1.87,6.57,6.57,0,0,0-3.61,6.35,5.06,5.06,0,0,0,2.62,4.73,11.11,11.11,0,0,0,5.6,1.49,12.62,12.62,0,0,0,6.85-2.37Q497.86,221.25,501.35,215Z" transform="translate(-96.01 -98)"/></svg>